<svg xmlns="http://www.w3.org/2000/svg" viewBox="0 0 64 64" width="64" height="64" role="img" aria-label="The Kindness Flywheel">
  <path class="kf-mark" fill="#2A2250" d="M 30.150 31.944 L 30.142 31.979 L 30.134 32.018 L 30.127 32.057 L 30.121 32.096 L 30.116 32.135 L 30.112 32.175 L 30.108 32.214 L 30.106 32.254 L 30.104 32.295 L 30.102 32.335 L 30.102 32.376 L 30.103 32.417 L 30.104 32.458 L 30.106 32.499 L 30.110 32.540 L 30.114 32.581 L 30.118 32.622 L 30.124 32.664 L 30.131 32.705 L 30.138 32.747 L 30.147 32.788 L 30.156 32.830 L 30.166 32.871 L 30.177 32.912 L 30.189 32.954 L 30.202 32.995 L 30.216 33.036 L 30.231 33.077 L 30.247 33.118 L 30.263 33.158 L 30.281 33.199 L 30.299 33.239 L 30.318 33.279 L 30.338 33.319 L 30.360 33.358 L 30.382 33.397 L 30.404 33.436 L 30.428 33.475 L 30.453 33.513 L 30.478 33.551 L 30.505 33.588 L 30.532 33.625 L 30.560 33.661 L 30.590 33.698 L 30.619 33.733 L 30.650 33.768 L 30.682 33.803 L 30.714 33.837 L 30.748 33.871 L 30.782 33.904 L 30.817 33.936 L 30.852 33.968 L 30.889 33.999 L 30.926 34.030 L 30.964 34.060 L 31.003 34.089 L 31.043 34.117 L 31.083 34.145 L 31.124 34.172 L 31.166 34.199 L 31.209 34.224 L 31.252 34.249 L 31.296 34.273 L 31.340 34.296 L 31.386 34.318 L 31.431 34.340 L 31.478 34.360 L 31.525 34.380 L 31.572 34.398 L 31.621 34.416 L 31.669 34.433 L 31.719 34.449 L 31.768 34.464 L 31.819 34.478 L 31.869 34.491 L 31.921 34.503 L 31.972 34.514 L 32.024 34.524 L 32.077 34.533 L 32.130 34.541 L 32.183 34.547 L 32.237 34.553 L 32.290 34.558 L 32.345 34.561 L 32.399 34.564 L 32.454 34.565 L 32.509 34.565 L 32.564 34.564 L 32.619 34.562 L 32.675 34.558 L 32.730 34.554 L 32.786 34.548 L 32.842 34.541 L 32.898 34.533 L 32.954 34.524 L 33.010 34.513 L 33.065 34.502 L 33.121 34.489 L 33.177 34.475 L 33.233 34.460 L 33.289 34.443 L 33.344 34.425 L 33.399 34.407 L 33.455 34.386 L 33.509 34.365 L 33.564 34.342 L 33.619 34.319 L 33.673 34.294 L 33.727 34.267 L 33.780 34.240 L 33.833 34.211 L 33.886 34.181 L 33.938 34.150 L 33.990 34.118 L 34.041 34.084 L 34.092 34.050 L 34.142 34.014 L 34.192 33.977 L 34.241 33.939 L 34.290 33.899 L 34.337 33.859 L 34.385 33.817 L 34.431 33.774 L 34.477 33.730 L 34.522 33.685 L 34.566 33.639 L 34.610 33.592 L 34.653 33.544 L 34.694 33.494 L 34.735 33.444 L 34.775 33.392 L 34.815 33.340 L 34.853 33.286 L 34.890 33.232 L 34.926 33.176 L 34.961 33.120 L 34.996 33.062 L 35.029 33.004 L 35.061 32.945 L 35.092 32.885 L 35.121 32.824 L 35.150 32.762 L 35.177 32.700 L 35.203 32.636 L 35.228 32.572 L 35.252 32.507 L 35.275 32.441 L 35.296 32.375 L 35.316 32.308 L 35.334 32.240 L 35.352 32.172 L 35.368 32.103 L 35.382 32.033 L 35.395 31.963 L 35.407 31.893 L 35.417 31.821 L 35.426 31.750 L 35.433 31.678 L 35.439 31.605 L 35.444 31.532 L 35.447 31.459 L 35.448 31.386 L 35.448 31.312 L 35.446 31.238 L 35.443 31.163 L 35.439 31.089 L 35.432 31.014 L 35.424 30.939 L 35.415 30.864 L 35.404 30.789 L 35.391 30.714 L 35.377 30.639 L 35.361 30.563 L 35.344 30.488 L 35.324 30.413 L 35.304 30.339 L 35.281 30.264 L 35.257 30.189 L 35.232 30.115 L 35.204 30.041 L 35.175 29.967 L 35.145 29.894 L 35.113 29.821 L 35.079 29.748 L 35.043 29.676 L 35.006 29.604 L 34.967 29.533 L 34.927 29.462 L 34.885 29.392 L 34.842 29.323 L 34.796 29.254 L 34.750 29.186 L 34.701 29.118 L 34.651 29.052 L 34.600 28.986 L 34.547 28.921 L 34.492 28.857 L 34.436 28.793 L 34.378 28.731 L 34.319 28.670 L 34.259 28.609 L 34.196 28.550 L 34.133 28.492 L 34.068 28.434 L 34.001 28.378 L 33.933 28.324 L 33.864 28.270 L 33.794 28.218 L 33.722 28.167 L 33.648 28.117 L 33.574 28.068 L 33.498 28.021 L 33.421 27.975 L 33.342 27.931 L 33.263 27.888 L 33.182 27.847 L 33.100 27.807 L 33.017 27.769 L 32.933 27.733 L 32.848 27.697 L 32.761 27.664 L 32.674 27.632 L 32.586 27.602 L 32.497 27.574 L 32.407 27.548 L 32.316 27.523 L 32.224 27.500 L 32.131 27.479 L 32.038 27.459 L 31.943 27.442 L 31.849 27.426 L 31.753 27.413 L 31.657 27.401 L 31.560 27.391 L 31.463 27.384 L 31.365 27.378 L 31.267 27.374 L 31.168 27.372 L 31.069 27.373 L 30.969 27.375 L 30.869 27.380 L 30.769 27.386 L 30.669 27.395 L 30.568 27.406 L 30.468 27.418 L 30.367 27.433 L 30.266 27.451 L 30.165 27.470 L 30.064 27.491 L 29.964 27.515 L 29.863 27.541 L 29.763 27.569 L 29.662 27.599 L 29.563 27.632 L 29.463 27.666 L 29.364 27.703 L 29.265 27.742 L 29.166 27.783 L 29.068 27.827 L 28.971 27.872 L 28.874 27.920 L 28.778 27.970 L 28.682 28.022 L 28.587 28.076 L 28.493 28.133 L 28.400 28.191 L 28.308 28.252 L 28.217 28.315 L 28.126 28.380 L 28.037 28.447 L 27.948 28.517 L 27.861 28.588 L 27.775 28.661 L 27.690 28.737 L 27.607 28.814 L 27.524 28.894 L 27.443 28.976 L 27.364 29.059 L 27.286 29.145 L 27.209 29.232 L 27.134 29.321 L 27.061 29.413 L 26.989 29.506 L 26.919 29.601 L 26.850 29.697 L 26.783 29.796 L 26.718 29.896 L 26.655 29.998 L 26.594 30.102 L 26.535 30.207 L 26.477 30.314 L 26.422 30.422 L 26.369 30.532 L 26.318 30.644 L 26.269 30.757 L 26.222 30.871 L 26.177 30.987 L 26.135 31.104 L 26.095 31.223 L 26.057 31.343 L 26.021 31.464 L 25.988 31.586 L 25.957 31.709 L 25.929 31.834 L 25.903 31.959 L 25.880 32.086 L 25.859 32.213 L 25.841 32.341 L 25.826 32.471 L 25.813 32.600 L 25.802 32.731 L 25.795 32.863 L 25.790 32.995 L 25.788 33.127 L 25.788 33.260 L 25.792 33.394 L 25.798 33.528 L 25.807 33.663 L 25.818 33.797 L 25.833 33.932 L 25.850 34.067 L 25.871 34.203 L 25.894 34.338 L 25.920 34.474 L 25.949 34.609 L 25.981 34.744 L 26.016 34.879 L 26.053 35.014 L 26.094 35.149 L 26.138 35.283 L 26.184 35.417 L 26.234 35.550 L 26.286 35.683 L 26.342 35.815 L 26.400 35.947 L 26.461 36.078 L 26.526 36.208 L 26.593 36.337 L 26.663 36.465 L 26.736 36.592 L 26.812 36.719 L 26.891 36.844 L 26.973 36.968 L 27.057 37.091 L 27.145 37.212 L 27.235 37.332 L 27.328 37.451 L 27.424 37.568 L 27.523 37.683 L 27.624 37.797 L 27.729 37.909 L 27.836 38.020 L 27.945 38.129 L 28.058 38.235 L 28.173 38.340 L 28.290 38.443 L 28.410 38.544 L 28.533 38.643 L 28.658 38.739 L 28.786 38.834 L 28.916 38.926 L 29.048 39.015 L 29.183 39.102 L 29.320 39.187 L 29.459 39.269 L 29.601 39.349 L 29.745 39.426 L 29.890 39.500 L 30.038 39.572 L 30.188 39.640 L 30.340 39.706 L 30.494 39.769 L 30.650 39.829 L 30.808 39.886 L 30.967 39.940 L 31.128 39.991 L 31.291 40.039 L 31.455 40.083 L 31.621 40.124 L 31.788 40.162 L 31.957 40.197 L 32.127 40.228 L 32.298 40.256 L 32.471 40.280 L 32.644 40.301 L 32.819 40.318 L 32.995 40.332 L 33.172 40.342 L 33.349 40.349 L 33.527 40.352 L 33.707 40.351 L 33.886 40.346 L 34.067 40.338 L 34.247 40.326 L 34.429 40.310 L 34.610 40.291 L 34.792 40.267 L 34.974 40.240 L 35.156 40.209 L 35.338 40.174 L 35.520 40.135 L 35.702 40.092 L 35.884 40.045 L 36.065 39.994 L 36.246 39.939 L 36.427 39.880 L 36.607 39.818 L 36.787 39.751 L 36.965 39.680 L 37.143 39.606 L 37.320 39.527 L 37.496 39.445 L 37.671 39.358 L 37.845 39.268 L 38.018 39.173 L 38.189 39.075 L 38.359 38.973 L 38.527 38.867 L 38.694 38.757 L 38.859 38.643 L 39.022 38.525 L 39.184 38.403 L 39.344 38.278 L 39.501 38.149 L 39.657 38.016 L 39.810 37.879 L 39.961 37.739 L 40.110 37.595 L 40.256 37.448 L 40.400 37.296 L 40.541 37.142 L 40.680 36.983 L 40.815 36.822 L 40.948 36.657 L 41.078 36.488 L 41.205 36.316 L 41.329 36.141 L 41.450 35.963 L 41.567 35.782 L 41.681 35.597 L 41.792 35.409 L 41.899 35.219 L 42.003 35.025 L 42.103 34.829 L 42.199 34.630 L 42.292 34.428 L 42.381 34.223 L 42.465 34.016 L 42.546 33.806 L 42.623 33.594 L 42.696 33.379 L 42.764 33.162 L 42.828 32.943 L 42.888 32.722 L 42.944 32.498 L 42.995 32.273 L 43.042 32.046 L 43.084 31.817 L 43.121 31.586 L 43.154 31.354 L 43.182 31.120 L 43.206 30.884 L 43.224 30.647 L 43.238 30.409 L 43.247 30.170 L 43.251 29.930 L 43.250 29.688 L 43.244 29.446 L 43.233 29.203 L 43.217 28.960 L 43.195 28.715 L 43.169 28.471 L 43.138 28.226 L 43.101 27.980 L 43.059 27.735 L 43.011 27.489 L 42.959 27.244 L 42.901 26.999 L 42.838 26.754 L 42.770 26.509 L 42.696 26.265 L 42.617 26.022 L 42.532 25.779 L 42.443 25.537 L 42.347 25.296 L 42.247 25.056 L 42.141 24.817 L 42.030 24.580 L 41.913 24.344 L 41.792 24.110 L 41.664 23.877 L 41.532 23.646 L 41.394 23.417 L 41.251 23.190 L 41.103 22.965 L 40.949 22.742 L 40.791 22.522 L 40.627 22.304 L 40.458 22.088 L 40.284 21.876 L 40.104 21.666 L 39.920 21.459 L 39.731 21.255 L 39.537 21.054 L 39.338 20.857 L 39.134 20.663 L 38.926 20.472 L 38.712 20.285 L 38.494 20.102 L 38.272 19.923 L 38.044 19.747 L 37.813 19.576 L 37.577 19.408 L 37.336 19.245 L 37.091 19.087 L 36.842 18.933 L 36.589 18.783 L 36.332 18.638 L 36.071 18.498 L 35.806 18.363 L 35.537 18.233 L 35.265 18.108 L 34.989 17.988 L 34.709 17.874 L 34.426 17.764 L 34.140 17.661 L 33.850 17.562 L 33.557 17.470 L 33.261 17.383 L 32.963 17.302 L 32.661 17.227 L 32.357 17.157 L 32.050 17.094 L 31.741 17.037 L 31.430 16.986 L 31.116 16.942 L 30.800 16.904 L 30.482 16.872 L 30.162 16.846 L 29.841 16.828 L 29.518 16.815 L 29.193 16.810 L 28.868 16.811 L 28.541 16.819 L 28.212 16.834 L 27.883 16.855 L 27.554 16.884 L 27.223 16.919 L 26.892 16.962 L 26.561 17.011 L 26.229 17.068 L 25.898 17.131 L 25.566 17.202 L 25.235 17.280 L 24.904 17.365 L 24.573 17.457 L 24.243 17.556 L 23.914 17.663 L 23.586 17.777 L 23.260 17.898 L 22.934 18.026 L 22.610 18.162 L 22.287 18.304 L 21.966 18.454 L 21.647 18.612 L 21.330 18.776 L 21.016 18.948 L 20.704 19.126 L 20.394 19.312 L 20.087 19.505 L 19.782 19.706 L 19.481 19.913 L 19.183 20.127 L 18.888 20.348 L 18.597 20.577 L 18.310 20.812 L 18.026 21.054 L 17.746 21.302 L 17.470 21.558 L 17.199 21.820 L 16.931 22.089 L 16.669 22.364 L 16.411 22.646 L 16.158 22.934 L 15.910 23.229 L 15.667 23.529 L 15.430 23.836 L 15.198 24.150 L 14.971 24.469 L 14.751 24.794 L 14.536 25.124 L 14.328 25.461 L 14.125 25.803 L 13.929 26.150 L 13.739 26.503 L 13.556 26.862 L 13.380 27.225 L 13.210 27.593 L 13.048 27.967 L 12.893 28.345 L 12.745 28.727 L 12.604 29.115 L 12.471 29.506 L 12.345 29.902 L 12.227 30.302 L 12.117 30.706 L 12.015 31.114 L 11.921 31.525 L 11.835 31.940 L 11.758 32.358 L 11.689 32.780 L 11.628 33.204 L 11.576 33.631 L 11.532 34.061 L 11.498 34.494 L 11.472 34.929 L 11.455 35.366 L 11.447 35.805 L 11.448 36.246 L 11.458 36.689 L 11.478 37.133 L 11.507 37.578 L 11.545 38.024 L 11.592 38.472 L 11.649 38.920 L 11.716 39.368 L 11.792 39.817 L 11.877 40.266 L 11.973 40.715 L 12.078 41.163 L 12.192 41.612 L 12.317 42.059 L 12.451 42.506 L 12.595 42.951 L 12.748 43.395 L 12.912 43.838 L 13.085 44.279 L 13.268 44.718 L 13.461 45.155 L 13.664 45.590 L 13.876 46.022 L 14.098 46.451 L 14.330 46.877 L 14.572 47.300 L 14.823 47.720 L 15.084 48.136 L 15.355 48.548 L 15.635 48.957 L 15.925 49.361 L 16.224 49.760 L 16.533 50.155 L 16.851 50.545 L 17.178 50.930 L 17.514 51.309 L 17.860 51.683 L 18.215 52.051 L 18.578 52.413 L 18.951 52.769 L 19.332 53.119 L 19.723 53.462 L 20.121 53.798 L 20.528 54.128 L 20.944 54.450 L 21.368 54.765 L 21.800 55.072 L 22.240 55.371 L 22.687 55.662 L 23.143 55.946 L 23.606 56.221 L 24.077 56.487 L 24.555 56.744 L 25.040 56.993 L 25.532 57.232 L 26.031 57.463 L 26.537 57.683 L 27.049 57.894 L 27.567 58.096 L 28.092 58.287 L 28.622 58.468 L 29.159 58.639 L 29.700 58.799 L 30.248 58.949 L 30.800 59.088 L 31.358 59.216 L 31.920 59.333 L 32.487 59.439 L 33.058 59.533 L 33.633 59.616 L 34.212 59.687 L 34.795 59.747 L 35.382 59.795 L 35.971 59.830 L 36.564 59.854 L 37.159 59.865 L 37.757 59.864 L 38.357 59.851 L 38.959 59.825 L 39.563 59.787 L 40.168 59.736 L 40.764 59.674 L 40.541 57.586 L 39.967 57.648 L 39.405 57.697 L 38.844 57.735 L 38.285 57.761 L 37.729 57.775 L 37.174 57.778 L 36.622 57.770 L 36.072 57.750 L 35.525 57.719 L 34.981 57.677 L 34.441 57.623 L 33.904 57.559 L 33.371 57.485 L 32.842 57.399 L 32.316 57.303 L 31.795 57.197 L 31.279 57.081 L 30.767 56.954 L 30.261 56.818 L 29.759 56.671 L 29.262 56.515 L 28.771 56.350 L 28.286 56.175 L 27.806 55.991 L 27.332 55.798 L 26.864 55.596 L 26.403 55.385 L 25.948 55.166 L 25.499 54.939 L 25.057 54.703 L 24.622 54.459 L 24.194 54.207 L 23.773 53.948 L 23.359 53.681 L 22.953 53.407 L 22.554 53.126 L 22.162 52.838 L 21.778 52.543 L 21.402 52.241 L 21.034 51.933 L 20.674 51.619 L 20.322 51.299 L 19.978 50.973 L 19.642 50.642 L 19.314 50.305 L 18.995 49.962 L 18.685 49.615 L 18.382 49.263 L 18.089 48.907 L 17.804 48.546 L 17.528 48.180 L 17.260 47.811 L 17.002 47.438 L 16.752 47.061 L 16.511 46.680 L 16.279 46.297 L 16.056 45.910 L 15.841 45.521 L 15.636 45.129 L 15.440 44.734 L 15.252 44.337 L 15.074 43.938 L 14.905 43.537 L 14.744 43.135 L 14.593 42.731 L 14.451 42.326 L 14.317 41.919 L 14.193 41.512 L 14.077 41.104 L 13.971 40.695 L 13.873 40.286 L 13.784 39.877 L 13.704 39.468 L 13.632 39.059 L 13.570 38.650 L 13.516 38.242 L 13.471 37.835 L 13.434 37.429 L 13.405 37.023 L 13.386 36.619 L 13.374 36.216 L 13.371 35.815 L 13.376 35.416 L 13.390 35.018 L 13.411 34.623 L 13.441 34.229 L 13.478 33.839 L 13.523 33.450 L 13.576 33.065 L 13.637 32.682 L 13.706 32.302 L 13.781 31.925 L 13.865 31.551 L 13.955 31.181 L 14.053 30.815 L 14.158 30.452 L 14.270 30.092 L 14.388 29.737 L 14.514 29.386 L 14.646 29.039 L 14.785 28.696 L 14.930 28.357 L 15.081 28.023 L 15.239 27.694 L 15.402 27.369 L 15.572 27.050 L 15.747 26.735 L 15.928 26.425 L 16.115 26.120 L 16.307 25.820 L 16.504 25.526 L 16.707 25.237 L 16.914 24.954 L 17.127 24.676 L 17.344 24.404 L 17.565 24.137 L 17.792 23.876 L 18.022 23.621 L 18.257 23.372 L 18.496 23.129 L 18.739 22.892 L 18.985 22.660 L 19.235 22.435 L 19.489 22.216 L 19.746 22.004 L 20.006 21.797 L 20.270 21.597 L 20.536 21.403 L 20.805 21.216 L 21.077 21.034 L 21.351 20.860 L 21.627 20.691 L 21.906 20.529 L 22.187 20.374 L 22.470 20.225 L 22.754 20.082 L 23.040 19.946 L 23.328 19.817 L 23.617 19.694 L 23.907 19.577 L 24.199 19.467 L 24.491 19.364 L 24.784 19.266 L 25.078 19.176 L 25.372 19.092 L 25.667 19.014 L 25.962 18.942 L 26.257 18.877 L 26.552 18.819 L 26.847 18.766 L 27.142 18.720 L 27.436 18.681 L 27.730 18.647 L 28.023 18.620 L 28.316 18.599 L 28.607 18.583 L 28.898 18.574 L 29.187 18.571 L 29.476 18.574 L 29.762 18.583 L 30.048 18.598 L 30.331 18.618 L 30.614 18.644 L 30.894 18.676 L 31.172 18.714 L 31.448 18.757 L 31.723 18.805 L 31.995 18.859 L 32.264 18.919 L 32.531 18.983 L 32.796 19.053 L 33.058 19.128 L 33.317 19.208 L 33.574 19.292 L 33.827 19.382 L 34.078 19.477 L 34.325 19.576 L 34.570 19.680 L 34.811 19.788 L 35.049 19.901 L 35.283 20.018 L 35.514 20.140 L 35.741 20.266 L 35.965 20.396 L 36.185 20.529 L 36.401 20.667 L 36.614 20.809 L 36.823 20.954 L 37.027 21.103 L 37.228 21.256 L 37.425 21.411 L 37.617 21.571 L 37.806 21.733 L 37.990 21.899 L 38.170 22.067 L 38.346 22.239 L 38.517 22.413 L 38.685 22.591 L 38.847 22.770 L 39.005 22.953 L 39.159 23.137 L 39.309 23.324 L 39.453 23.514 L 39.594 23.705 L 39.729 23.898 L 39.860 24.094 L 39.987 24.291 L 40.109 24.489 L 40.226 24.690 L 40.339 24.892 L 40.447 25.095 L 40.550 25.300 L 40.648 25.505 L 40.742 25.712 L 40.832 25.920 L 40.916 26.129 L 40.996 26.338 L 41.071 26.549 L 41.142 26.759 L 41.208 26.971 L 41.269 27.182 L 41.326 27.394 L 41.378 27.607 L 41.425 27.819 L 41.468 28.031 L 41.507 28.243 L 41.540 28.455 L 41.570 28.667 L 41.594 28.879 L 41.615 29.089 L 41.631 29.300 L 41.642 29.510 L 41.650 29.719 L 41.652 29.927 L 41.651 30.134 L 41.645 30.341 L 41.635 30.546 L 41.621 30.750 L 41.603 30.953 L 41.581 31.155 L 41.555 31.355 L 41.524 31.554 L 41.490 31.751 L 41.452 31.947 L 41.410 32.141 L 41.364 32.334 L 41.315 32.524 L 41.261 32.713 L 41.205 32.899 L 41.144 33.084 L 41.080 33.266 L 41.013 33.447 L 40.942 33.625 L 40.868 33.801 L 40.791 33.975 L 40.710 34.146 L 40.626 34.315 L 40.539 34.481 L 40.450 34.645 L 40.357 34.806 L 40.261 34.964 L 40.163 35.120 L 40.061 35.273 L 39.957 35.424 L 39.851 35.571 L 39.742 35.716 L 39.630 35.858 L 39.516 35.996 L 39.400 36.132 L 39.282 36.265 L 39.161 36.395 L 39.038 36.522 L 38.913 36.645 L 38.786 36.766 L 38.658 36.883 L 38.527 36.997 L 38.395 37.108 L 38.261 37.216 L 38.125 37.320 L 37.988 37.421 L 37.850 37.519 L 37.710 37.614 L 37.568 37.705 L 37.426 37.793 L 37.282 37.878 L 37.138 37.960 L 36.992 38.038 L 36.845 38.112 L 36.698 38.184 L 36.550 38.252 L 36.401 38.316 L 36.251 38.377 L 36.101 38.435 L 35.950 38.490 L 35.799 38.541 L 35.648 38.589 L 35.496 38.634 L 35.344 38.675 L 35.192 38.713 L 35.039 38.747 L 34.887 38.779 L 34.735 38.807 L 34.583 38.832 L 34.431 38.853 L 34.279 38.872 L 34.128 38.887 L 33.977 38.899 L 33.827 38.908 L 33.677 38.913 L 33.527 38.916 L 33.379 38.916 L 33.230 38.912 L 33.083 38.906 L 32.937 38.896 L 32.791 38.884 L 32.646 38.868 L 32.503 38.850 L 32.360 38.829 L 32.218 38.805 L 32.078 38.778 L 31.939 38.748 L 31.801 38.716 L 31.664 38.681 L 31.528 38.643 L 31.394 38.603 L 31.262 38.560 L 31.131 38.515 L 31.001 38.467 L 30.873 38.417 L 30.747 38.365 L 30.622 38.310 L 30.499 38.252 L 30.378 38.193 L 30.259 38.131 L 30.141 38.067 L 30.025 38.001 L 29.912 37.933 L 29.800 37.863 L 29.690 37.791 L 29.582 37.717 L 29.476 37.641 L 29.372 37.563 L 29.270 37.484 L 29.170 37.402 L 29.072 37.320 L 28.977 37.235 L 28.883 37.149 L 28.792 37.061 L 28.703 36.972 L 28.617 36.882 L 28.532 36.790 L 28.450 36.697 L 28.370 36.602 L 28.293 36.507 L 28.218 36.410 L 28.145 36.312 L 28.074 36.213 L 28.006 36.113 L 27.940 36.013 L 27.877 35.911 L 27.815 35.808 L 27.757 35.705 L 27.700 35.601 L 27.647 35.496 L 27.595 35.391 L 27.546 35.285 L 27.499 35.179 L 27.455 35.072 L 27.413 34.964 L 27.373 34.857 L 27.336 34.749 L 27.301 34.640 L 27.269 34.532 L 27.239 34.423 L 27.211 34.315 L 27.186 34.206 L 27.163 34.097 L 27.143 33.988 L 27.124 33.880 L 27.108 33.771 L 27.095 33.663 L 27.083 33.554 L 27.074 33.446 L 27.068 33.339 L 27.063 33.232 L 27.061 33.125 L 27.060 33.018 L 27.062 32.913 L 27.067 32.807 L 27.073 32.702 L 27.081 32.598 L 27.092 32.495 L 27.104 32.392 L 27.119 32.290 L 27.136 32.188 L 27.154 32.088 L 27.175 31.988 L 27.198 31.889 L 27.222 31.792 L 27.249 31.695 L 27.277 31.599 L 27.307 31.504 L 27.339 31.410 L 27.373 31.317 L 27.408 31.226 L 27.445 31.135 L 27.484 31.046 L 27.525 30.958 L 27.567 30.871 L 27.610 30.786 L 27.656 30.701 L 27.702 30.618 L 27.751 30.537 L 27.800 30.457 L 27.851 30.378 L 27.904 30.300 L 27.958 30.224 L 28.013 30.150 L 28.069 30.077 L 28.127 30.005 L 28.186 29.935 L 28.246 29.866 L 28.307 29.800 L 28.369 29.734 L 28.432 29.670 L 28.497 29.608 L 28.562 29.547 L 28.628 29.488 L 28.695 29.431 L 28.763 29.375 L 28.832 29.321 L 28.902 29.269 L 28.972 29.218 L 29.043 29.169 L 29.115 29.122 L 29.187 29.076 L 29.260 29.032 L 29.334 28.990 L 29.408 28.949 L 29.482 28.910 L 29.557 28.873 L 29.633 28.837 L 29.708 28.804 L 29.785 28.772 L 29.861 28.741 L 29.938 28.713 L 30.015 28.686 L 30.092 28.660 L 30.169 28.637 L 30.246 28.615 L 30.324 28.595 L 30.401 28.576 L 30.479 28.560 L 30.556 28.545 L 30.634 28.531 L 30.711 28.519 L 30.789 28.509 L 30.866 28.501 L 30.943 28.494 L 31.019 28.488 L 31.096 28.485 L 31.172 28.482 L 31.248 28.482 L 31.323 28.483 L 31.399 28.485 L 31.473 28.489 L 31.548 28.495 L 31.622 28.502 L 31.695 28.511 L 31.768 28.521 L 31.840 28.532 L 31.912 28.545 L 31.983 28.559 L 32.054 28.575 L 32.123 28.592 L 32.193 28.610 L 32.261 28.630 L 32.329 28.651 L 32.396 28.674 L 32.462 28.697 L 32.528 28.722 L 32.592 28.748 L 32.656 28.775 L 32.719 28.804 L 32.781 28.834 L 32.842 28.864 L 32.903 28.896 L 32.962 28.929 L 33.020 28.963 L 33.078 28.998 L 33.134 29.034 L 33.190 29.071 L 33.244 29.109 L 33.297 29.148 L 33.350 29.188 L 33.401 29.229 L 33.451 29.271 L 33.500 29.313 L 33.548 29.356 L 33.595 29.400 L 33.641 29.445 L 33.686 29.491 L 33.729 29.537 L 33.772 29.584 L 33.813 29.631 L 33.853 29.679 L 33.892 29.728 L 33.929 29.777 L 33.966 29.827 L 34.001 29.878 L 34.035 29.929 L 34.068 29.980 L 34.100 30.032 L 34.130 30.084 L 34.160 30.136 L 34.188 30.189 L 34.215 30.243 L 34.240 30.296 L 34.265 30.350 L 34.288 30.404 L 34.310 30.458 L 34.331 30.513 L 34.350 30.567 L 34.369 30.622 L 34.386 30.677 L 34.402 30.732 L 34.416 30.787 L 34.430 30.842 L 34.442 30.897 L 34.454 30.953 L 34.464 31.008 L 34.472 31.063 L 34.480 31.118 L 34.487 31.173 L 34.492 31.227 L 34.496 31.282 L 34.499 31.337 L 34.501 31.391 L 34.502 31.445 L 34.502 31.499 L 34.500 31.552 L 34.498 31.605 L 34.494 31.658 L 34.489 31.711 L 34.484 31.763 L 34.477 31.815 L 34.469 31.867 L 34.460 31.918 L 34.451 31.969 L 34.440 32.019 L 34.428 32.069 L 34.415 32.118 L 34.402 32.167 L 34.387 32.216 L 34.372 32.264 L 34.355 32.311 L 34.338 32.358 L 34.320 32.404 L 34.301 32.449 L 34.281 32.494 L 34.260 32.539 L 34.238 32.583 L 34.216 32.626 L 34.193 32.668 L 34.169 32.710 L 34.144 32.751 L 34.119 32.791 L 34.093 32.831 L 34.066 32.870 L 34.039 32.908 L 34.011 32.946 L 33.982 32.983 L 33.953 33.019 L 33.923 33.054 L 33.892 33.088 L 33.861 33.122 L 33.829 33.155 L 33.797 33.187 L 33.765 33.218 L 33.731 33.249 L 33.698 33.278 L 33.664 33.307 L 33.629 33.335 L 33.594 33.362 L 33.559 33.389 L 33.523 33.414 L 33.487 33.439 L 33.451 33.463 L 33.414 33.486 L 33.377 33.508 L 33.340 33.529 L 33.302 33.549 L 33.265 33.569 L 33.227 33.587 L 33.189 33.605 L 33.150 33.622 L 33.112 33.638 L 33.073 33.653 L 33.034 33.667 L 32.995 33.681 L 32.956 33.693 L 32.917 33.705 L 32.878 33.716 L 32.839 33.726 L 32.799 33.735 L 32.760 33.744 L 32.721 33.751 L 32.682 33.758 L 32.643 33.764 L 32.604 33.769 L 32.564 33.773 L 32.526 33.776 L 32.487 33.779 L 32.448 33.781 L 32.410 33.781 L 32.371 33.782 L 32.333 33.781 L 32.295 33.780 L 32.257 33.777 L 32.220 33.774 L 32.182 33.771 L 32.145 33.766 L 32.108 33.761 L 32.072 33.755 L 32.035 33.749 L 31.999 33.741 L 31.964 33.733 L 31.928 33.725 L 31.893 33.715 L 31.859 33.705 L 31.824 33.694 L 31.791 33.683 L 31.757 33.671 L 31.724 33.658 L 31.691 33.645 L 31.659 33.631 L 31.627 33.617 L 31.596 33.602 L 31.565 33.586 L 31.534 33.570 L 31.504 33.553 L 31.475 33.536 L 31.446 33.518 L 31.417 33.500 L 31.389 33.481 L 31.361 33.461 L 31.334 33.442 L 31.308 33.421 L 31.282 33.401 L 31.256 33.380 L 31.232 33.358 L 31.207 33.336 L 31.183 33.314 L 31.160 33.291 L 31.138 33.268 L 31.116 33.245 L 31.094 33.221 L 31.073 33.197 L 31.053 33.172 L 31.033 33.147 L 31.014 33.122 L 30.996 33.097 L 30.978 33.071 L 30.960 33.046 L 30.944 33.020 L 30.928 32.993 L 30.912 32.967 L 30.897 32.940 L 30.883 32.913 L 30.869 32.886 L 30.856 32.859 L 30.844 32.832 L 30.832 32.804 L 30.821 32.777 L 30.810 32.749 L 30.800 32.721 L 30.791 32.693 L 30.782 32.665 L 30.774 32.637 L 30.766 32.609 L 30.759 32.581 L 30.753 32.553 L 30.747 32.525 L 30.742 32.497 L 30.738 32.469 L 30.734 32.441 L 30.730 32.413 L 30.728 32.385 L 30.725 32.357 L 30.724 32.330 L 30.723 32.302 L 30.722 32.274 L 30.722 32.247 L 30.723 32.220 L 30.724 32.192 L 30.726 32.165 L 30.728 32.138 L 30.731 32.112 L 30.735 32.085 L 30.739 32.056 Z"/><circle class="kf-accent" fill="#D95F3B" cx="40.652" cy="58.630" r="1.400"/>
</svg>
