<svg xmlns="http://www.w3.org/2000/svg" viewBox="0 0 400 356" width="400" height="356" role="img" aria-label="The Kindness Flywheel">
  <path class="kf-mark" fill="#2A2250" d="M 194.149 119.944 L 194.122 120.062 L 194.096 120.183 L 194.073 120.306 L 194.053 120.429 L 194.035 120.554 L 194.019 120.679 L 194.007 120.806 L 193.996 120.933 L 193.988 121.061 L 193.983 121.190 L 193.981 121.320 L 193.981 121.450 L 193.984 121.580 L 193.990 121.712 L 193.998 121.843 L 194.010 121.975 L 194.024 122.108 L 194.041 122.241 L 194.061 122.374 L 194.083 122.507 L 194.109 122.640 L 194.137 122.773 L 194.169 122.906 L 194.203 123.040 L 194.240 123.173 L 194.280 123.306 L 194.324 123.438 L 194.370 123.571 L 194.419 123.703 L 194.471 123.834 L 194.526 123.965 L 194.584 124.095 L 194.645 124.225 L 194.709 124.354 L 194.775 124.483 L 194.845 124.610 L 194.918 124.736 L 194.994 124.862 L 195.073 124.987 L 195.154 125.110 L 195.239 125.232 L 195.327 125.353 L 195.417 125.473 L 195.510 125.591 L 195.607 125.708 L 195.706 125.823 L 195.808 125.937 L 195.912 126.049 L 196.020 126.160 L 196.130 126.268 L 196.243 126.375 L 196.359 126.480 L 196.477 126.583 L 196.598 126.684 L 196.722 126.783 L 196.848 126.880 L 196.977 126.974 L 197.108 127.066 L 197.242 127.156 L 197.378 127.243 L 197.517 127.328 L 197.658 127.411 L 197.801 127.490 L 197.947 127.568 L 198.095 127.642 L 198.245 127.714 L 198.397 127.782 L 198.551 127.848 L 198.707 127.911 L 198.866 127.971 L 199.026 128.028 L 199.188 128.082 L 199.351 128.133 L 199.517 128.180 L 199.684 128.225 L 199.853 128.265 L 200.023 128.303 L 200.195 128.337 L 200.368 128.368 L 200.543 128.395 L 200.719 128.419 L 200.896 128.439 L 201.075 128.456 L 201.254 128.469 L 201.434 128.478 L 201.616 128.483 L 201.798 128.485 L 201.981 128.483 L 202.165 128.477 L 202.349 128.467 L 202.534 128.454 L 202.720 128.436 L 202.905 128.415 L 203.091 128.389 L 203.278 128.360 L 203.464 128.326 L 203.651 128.289 L 203.838 128.247 L 204.024 128.202 L 204.210 128.152 L 204.396 128.098 L 204.582 128.041 L 204.767 127.979 L 204.952 127.913 L 205.136 127.842 L 205.319 127.768 L 205.502 127.690 L 205.683 127.607 L 205.864 127.521 L 206.044 127.430 L 206.222 127.335 L 206.399 127.236 L 206.575 127.133 L 206.750 127.026 L 206.923 126.915 L 207.094 126.799 L 207.263 126.680 L 207.431 126.557 L 207.597 126.429 L 207.761 126.298 L 207.923 126.163 L 208.082 126.024 L 208.240 125.881 L 208.395 125.734 L 208.548 125.583 L 208.698 125.428 L 208.845 125.270 L 208.990 125.108 L 209.132 124.943 L 209.271 124.773 L 209.407 124.600 L 209.540 124.424 L 209.670 124.244 L 209.797 124.061 L 209.920 123.874 L 210.040 123.684 L 210.157 123.491 L 210.270 123.295 L 210.379 123.095 L 210.485 122.893 L 210.587 122.687 L 210.685 122.478 L 210.779 122.267 L 210.869 122.053 L 210.955 121.836 L 211.037 121.616 L 211.114 121.394 L 211.187 121.169 L 211.256 120.942 L 211.320 120.712 L 211.380 120.481 L 211.435 120.247 L 211.486 120.011 L 211.532 119.773 L 211.573 119.533 L 211.609 119.291 L 211.640 119.048 L 211.667 118.803 L 211.688 118.556 L 211.705 118.309 L 211.716 118.059 L 211.722 117.809 L 211.723 117.557 L 211.719 117.305 L 211.709 117.051 L 211.694 116.797 L 211.674 116.542 L 211.648 116.286 L 211.617 116.030 L 211.581 115.774 L 211.539 115.517 L 211.492 115.260 L 211.439 115.003 L 211.380 114.747 L 211.316 114.490 L 211.246 114.234 L 211.171 113.978 L 211.090 113.723 L 211.003 113.468 L 210.911 113.215 L 210.813 112.962 L 210.710 112.710 L 210.601 112.459 L 210.486 112.210 L 210.366 111.962 L 210.240 111.716 L 210.108 111.471 L 209.971 111.228 L 209.828 110.987 L 209.680 110.748 L 209.526 110.511 L 209.366 110.277 L 209.201 110.045 L 209.031 109.815 L 208.855 109.588 L 208.674 109.364 L 208.487 109.143 L 208.295 108.924 L 208.098 108.709 L 207.895 108.497 L 207.687 108.289 L 207.474 108.084 L 207.256 107.882 L 207.033 107.685 L 206.805 107.491 L 206.573 107.301 L 206.335 107.116 L 206.092 106.934 L 205.845 106.757 L 205.593 106.584 L 205.337 106.416 L 205.076 106.253 L 204.810 106.094 L 204.541 105.941 L 204.267 105.792 L 203.989 105.648 L 203.707 105.510 L 203.420 105.377 L 203.130 105.250 L 202.837 105.128 L 202.539 105.011 L 202.238 104.900 L 201.934 104.796 L 201.626 104.697 L 201.315 104.604 L 201.001 104.517 L 200.684 104.436 L 200.363 104.362 L 200.040 104.294 L 199.715 104.233 L 199.387 104.178 L 199.056 104.129 L 198.724 104.088 L 198.389 104.053 L 198.052 104.025 L 197.713 104.003 L 197.372 103.989 L 197.030 103.982 L 196.686 103.982 L 196.341 103.989 L 195.995 104.003 L 195.648 104.025 L 195.300 104.053 L 194.951 104.090 L 194.602 104.133 L 194.252 104.184 L 193.902 104.242 L 193.551 104.308 L 193.201 104.382 L 192.851 104.463 L 192.501 104.551 L 192.152 104.648 L 191.804 104.751 L 191.456 104.863 L 191.109 104.982 L 190.763 105.109 L 190.419 105.243 L 190.076 105.385 L 189.735 105.535 L 189.396 105.693 L 189.058 105.858 L 188.723 106.030 L 188.390 106.211 L 188.059 106.399 L 187.731 106.594 L 187.406 106.798 L 187.084 107.008 L 186.765 107.226 L 186.450 107.452 L 186.137 107.685 L 185.829 107.926 L 185.524 108.173 L 185.224 108.428 L 184.927 108.691 L 184.635 108.960 L 184.347 109.237 L 184.064 109.520 L 183.786 109.811 L 183.512 110.108 L 183.244 110.412 L 182.981 110.723 L 182.724 111.041 L 182.472 111.365 L 182.226 111.696 L 181.986 112.033 L 181.752 112.376 L 181.524 112.726 L 181.302 113.081 L 181.087 113.443 L 180.879 113.810 L 180.678 114.183 L 180.484 114.562 L 180.296 114.946 L 180.116 115.336 L 179.944 115.730 L 179.779 116.130 L 179.621 116.535 L 179.472 116.944 L 179.330 117.359 L 179.197 117.778 L 179.071 118.201 L 178.954 118.628 L 178.846 119.059 L 178.746 119.495 L 178.654 119.934 L 178.572 120.376 L 178.498 120.822 L 178.433 121.272 L 178.378 121.724 L 178.331 122.179 L 178.294 122.637 L 178.266 123.097 L 178.248 123.560 L 178.239 124.025 L 178.239 124.492 L 178.250 124.960 L 178.270 125.431 L 178.300 125.902 L 178.340 126.375 L 178.390 126.848 L 178.450 127.323 L 178.520 127.798 L 178.600 128.273 L 178.691 128.748 L 178.791 129.224 L 178.902 129.699 L 179.023 130.174 L 179.155 130.647 L 179.297 131.120 L 179.449 131.592 L 179.611 132.063 L 179.784 132.531 L 179.967 132.998 L 180.161 133.463 L 180.365 133.926 L 180.580 134.386 L 180.804 134.844 L 181.040 135.299 L 181.285 135.750 L 181.541 136.198 L 181.807 136.643 L 182.083 137.083 L 182.370 137.520 L 182.667 137.952 L 182.973 138.380 L 183.290 138.803 L 183.617 139.221 L 183.954 139.634 L 184.300 140.041 L 184.657 140.443 L 185.023 140.839 L 185.398 141.228 L 185.783 141.612 L 186.178 141.989 L 186.582 142.359 L 186.995 142.722 L 187.417 143.078 L 187.849 143.427 L 188.289 143.767 L 188.737 144.100 L 189.195 144.425 L 189.661 144.742 L 190.135 145.050 L 190.618 145.350 L 191.108 145.641 L 191.606 145.922 L 192.113 146.195 L 192.626 146.458 L 193.147 146.711 L 193.676 146.954 L 194.211 147.187 L 194.753 147.410 L 195.302 147.623 L 195.858 147.825 L 196.419 148.016 L 196.987 148.197 L 197.561 148.366 L 198.140 148.524 L 198.725 148.671 L 199.315 148.805 L 199.911 148.929 L 200.510 149.040 L 201.115 149.139 L 201.724 149.226 L 202.337 149.301 L 202.954 149.364 L 203.574 149.413 L 204.198 149.451 L 204.825 149.475 L 205.455 149.486 L 206.088 149.485 L 206.723 149.470 L 207.360 149.442 L 207.998 149.400 L 208.639 149.346 L 209.280 149.277 L 209.923 149.196 L 210.566 149.100 L 211.210 148.991 L 211.854 148.868 L 212.498 148.731 L 213.142 148.580 L 213.785 148.416 L 214.426 148.237 L 215.067 148.045 L 215.706 147.838 L 216.343 147.617 L 216.978 147.383 L 217.610 147.134 L 218.240 146.871 L 218.867 146.594 L 219.490 146.303 L 220.109 145.998 L 220.725 145.679 L 221.336 145.346 L 221.943 144.999 L 222.545 144.638 L 223.141 144.264 L 223.732 143.875 L 224.317 143.473 L 224.896 143.057 L 225.469 142.628 L 226.035 142.185 L 226.594 141.728 L 227.145 141.259 L 227.689 140.776 L 228.225 140.280 L 228.752 139.770 L 229.271 139.249 L 229.781 138.714 L 230.282 138.167 L 230.774 137.607 L 231.256 137.035 L 231.727 136.451 L 232.189 135.854 L 232.639 135.246 L 233.079 134.627 L 233.508 133.996 L 233.925 133.353 L 234.330 132.700 L 234.724 132.035 L 235.105 131.360 L 235.473 130.675 L 235.829 129.979 L 236.171 129.273 L 236.501 128.557 L 236.816 127.832 L 237.118 127.098 L 237.406 126.354 L 237.679 125.602 L 237.938 124.841 L 238.182 124.072 L 238.410 123.296 L 238.624 122.511 L 238.822 121.719 L 239.005 120.920 L 239.171 120.114 L 239.322 119.301 L 239.456 118.483 L 239.574 117.658 L 239.675 116.828 L 239.759 115.993 L 239.826 115.152 L 239.876 114.308 L 239.909 113.459 L 239.924 112.606 L 239.922 111.749 L 239.901 110.889 L 239.863 110.027 L 239.807 109.162 L 239.733 108.295 L 239.640 107.426 L 239.529 106.556 L 239.400 105.685 L 239.252 104.813 L 239.085 103.941 L 238.900 103.069 L 238.695 102.198 L 238.472 101.328 L 238.230 100.458 L 237.970 99.591 L 237.690 98.726 L 237.391 97.863 L 237.073 97.004 L 236.736 96.147 L 236.380 95.295 L 236.005 94.446 L 235.611 93.602 L 235.198 92.764 L 234.766 91.930 L 234.315 91.102 L 233.845 90.281 L 233.356 89.466 L 232.849 88.658 L 232.323 87.858 L 231.778 87.066 L 231.215 86.282 L 230.634 85.506 L 230.034 84.740 L 229.416 83.983 L 228.780 83.236 L 228.126 82.500 L 227.454 81.774 L 226.765 81.060 L 226.058 80.357 L 225.334 79.666 L 224.593 78.988 L 223.835 78.322 L 223.060 77.670 L 222.269 77.031 L 221.462 76.406 L 220.639 75.796 L 219.799 75.200 L 218.945 74.619 L 218.075 74.055 L 217.190 73.505 L 216.290 72.973 L 215.376 72.456 L 214.447 71.957 L 213.505 71.475 L 212.549 71.011 L 211.580 70.565 L 210.598 70.138 L 209.604 69.729 L 208.597 69.339 L 207.578 68.969 L 206.548 68.618 L 205.507 68.288 L 204.455 67.978 L 203.392 67.688 L 202.319 67.419 L 201.237 67.172 L 200.145 66.946 L 199.045 66.742 L 197.936 66.560 L 196.819 66.400 L 195.695 66.263 L 194.564 66.149 L 193.426 66.057 L 192.281 65.989 L 191.131 65.945 L 189.976 65.924 L 188.816 65.927 L 187.651 65.954 L 186.483 66.005 L 185.311 66.081 L 184.137 66.181 L 182.960 66.306 L 181.781 66.456 L 180.601 66.631 L 179.420 66.831 L 178.239 67.057 L 177.057 67.307 L 175.877 67.584 L 174.698 67.885 L 173.520 68.213 L 172.345 68.566 L 171.173 68.944 L 170.004 69.349 L 168.840 69.779 L 167.679 70.235 L 166.524 70.717 L 165.374 71.225 L 164.231 71.758 L 163.094 72.317 L 161.964 72.902 L 160.843 73.512 L 159.729 74.148 L 158.625 74.810 L 157.530 75.497 L 156.446 76.209 L 155.372 76.947 L 154.309 77.709 L 153.258 78.497 L 152.219 79.309 L 151.193 80.146 L 150.181 81.008 L 149.183 81.893 L 148.199 82.803 L 147.231 83.737 L 146.278 84.694 L 145.341 85.674 L 144.421 86.678 L 143.519 87.705 L 142.634 88.754 L 141.768 89.826 L 140.920 90.919 L 140.092 92.035 L 139.285 93.172 L 138.497 94.329 L 137.731 95.508 L 136.986 96.707 L 136.263 97.926 L 135.563 99.165 L 134.886 100.422 L 134.232 101.699 L 133.602 102.994 L 132.997 104.307 L 132.417 105.638 L 131.862 106.986 L 131.333 108.350 L 130.830 109.730 L 130.354 111.127 L 129.905 112.538 L 129.483 113.964 L 129.090 115.404 L 128.725 116.858 L 128.389 118.325 L 128.081 119.804 L 127.804 121.296 L 127.556 122.799 L 127.339 124.313 L 127.152 125.837 L 126.996 127.370 L 126.871 128.913 L 126.777 130.465 L 126.716 132.024 L 126.687 133.590 L 126.689 135.163 L 126.725 136.742 L 126.794 138.326 L 126.895 139.914 L 127.030 141.507 L 127.199 143.103 L 127.401 144.701 L 127.637 146.302 L 127.907 147.903 L 128.212 149.505 L 128.550 151.107 L 128.924 152.708 L 129.332 154.307 L 129.774 155.904 L 130.252 157.498 L 130.764 159.088 L 131.312 160.673 L 131.894 162.253 L 132.511 163.827 L 133.163 165.395 L 133.850 166.954 L 134.573 168.506 L 135.330 170.048 L 136.122 171.581 L 136.949 173.102 L 137.810 174.613 L 138.706 176.111 L 139.637 177.597 L 140.602 179.069 L 141.601 180.526 L 142.634 181.969 L 143.701 183.395 L 144.802 184.805 L 145.936 186.197 L 147.103 187.571 L 148.303 188.927 L 149.536 190.262 L 150.802 191.577 L 152.099 192.871 L 153.428 194.142 L 154.789 195.391 L 156.181 196.617 L 157.603 197.818 L 159.056 198.995 L 160.538 200.146 L 162.051 201.270 L 163.592 202.367 L 165.162 203.437 L 166.760 204.478 L 168.386 205.490 L 170.039 206.472 L 171.719 207.424 L 173.425 208.344 L 175.156 209.233 L 176.913 210.089 L 178.693 210.912 L 180.498 211.701 L 182.326 212.455 L 184.177 213.175 L 186.050 213.859 L 187.944 214.507 L 189.858 215.118 L 191.793 215.692 L 193.747 216.227 L 195.719 216.725 L 197.710 217.183 L 199.717 217.601 L 201.741 217.980 L 203.780 218.318 L 205.835 218.615 L 207.903 218.871 L 209.984 219.085 L 212.078 219.256 L 214.183 219.385 L 216.299 219.471 L 218.425 219.512 L 220.560 219.511 L 222.703 219.464 L 224.854 219.373 L 227.010 219.238 L 229.172 219.057 L 231.300 218.834 L 230.503 211.377 L 228.453 211.601 L 226.446 211.779 L 224.444 211.914 L 222.448 212.008 L 220.459 212.061 L 218.478 212.072 L 216.505 212.042 L 214.542 211.973 L 212.589 211.863 L 210.647 211.713 L 208.716 211.524 L 206.798 211.297 L 204.894 211.031 L 203.003 210.727 L 201.126 210.386 L 199.266 210.007 L 197.421 209.592 L 195.593 209.141 L 193.782 208.655 L 191.989 208.133 L 190.215 207.577 L 188.461 206.987 L 186.726 206.363 L 185.012 205.707 L 183.318 205.018 L 181.647 204.298 L 179.998 203.546 L 178.371 202.764 L 176.768 201.952 L 175.189 201.110 L 173.634 200.240 L 172.104 199.342 L 170.599 198.417 L 169.119 197.464 L 167.666 196.486 L 166.240 195.481 L 164.840 194.453 L 163.468 193.400 L 162.123 192.323 L 160.807 191.224 L 159.519 190.102 L 158.260 188.959 L 157.030 187.795 L 155.829 186.611 L 154.658 185.408 L 153.517 184.186 L 152.406 182.946 L 151.325 181.689 L 150.276 180.415 L 149.256 179.125 L 148.268 177.820 L 147.312 176.500 L 146.386 175.167 L 145.492 173.821 L 144.630 172.462 L 143.800 171.092 L 143.001 169.710 L 142.234 168.319 L 141.499 166.918 L 140.797 165.508 L 140.126 164.089 L 139.488 162.664 L 138.881 161.231 L 138.307 159.793 L 137.765 158.349 L 137.255 156.901 L 136.777 155.448 L 136.331 153.992 L 135.917 152.534 L 135.535 151.073 L 135.184 149.611 L 134.865 148.149 L 134.577 146.686 L 134.321 145.224 L 134.096 143.763 L 133.902 142.304 L 133.739 140.848 L 133.606 139.395 L 133.504 137.945 L 133.432 136.500 L 133.390 135.060 L 133.378 133.625 L 133.396 132.197 L 133.442 130.775 L 133.518 129.361 L 133.622 127.954 L 133.755 126.556 L 133.916 125.167 L 134.105 123.787 L 134.321 122.418 L 134.564 121.059 L 134.835 119.711 L 135.131 118.374 L 135.454 117.050 L 135.803 115.738 L 136.177 114.439 L 136.576 113.154 L 136.999 111.882 L 137.447 110.625 L 137.919 109.383 L 138.414 108.156 L 138.932 106.945 L 139.473 105.749 L 140.035 104.571 L 140.620 103.409 L 141.226 102.264 L 141.852 101.136 L 142.499 100.027 L 143.166 98.936 L 143.852 97.863 L 144.557 96.810 L 145.281 95.775 L 146.023 94.760 L 146.782 93.765 L 147.558 92.790 L 148.351 91.835 L 149.160 90.900 L 149.984 89.987 L 150.824 89.094 L 151.678 88.223 L 152.546 87.373 L 153.428 86.545 L 154.323 85.738 L 155.230 84.954 L 156.150 84.192 L 157.081 83.452 L 158.023 82.734 L 158.975 82.039 L 159.938 81.367 L 160.910 80.717 L 161.891 80.090 L 162.881 79.487 L 163.878 78.906 L 164.883 78.348 L 165.895 77.814 L 166.914 77.302 L 167.938 76.814 L 168.968 76.349 L 170.003 75.908 L 171.042 75.489 L 172.085 75.094 L 173.132 74.722 L 174.181 74.373 L 175.233 74.047 L 176.287 73.744 L 177.343 73.465 L 178.399 73.208 L 179.456 72.974 L 180.513 72.763 L 181.570 72.574 L 182.626 72.408 L 183.681 72.265 L 184.733 72.143 L 185.784 72.044 L 186.832 71.967 L 187.877 71.912 L 188.918 71.878 L 189.955 71.866 L 190.988 71.876 L 192.016 71.906 L 193.039 71.958 L 194.056 72.030 L 195.067 72.123 L 196.072 72.236 L 197.070 72.369 L 198.061 72.522 L 199.044 72.695 L 200.019 72.888 L 200.986 73.099 L 201.944 73.329 L 202.893 73.578 L 203.833 73.846 L 204.763 74.131 L 205.683 74.434 L 206.593 74.755 L 207.492 75.093 L 208.380 75.448 L 209.257 75.820 L 210.122 76.208 L 210.975 76.612 L 211.817 77.032 L 212.645 77.467 L 213.462 77.917 L 214.265 78.382 L 215.055 78.861 L 215.832 79.355 L 216.595 79.862 L 217.345 80.382 L 218.080 80.916 L 218.801 81.462 L 219.507 82.021 L 220.199 82.591 L 220.877 83.174 L 221.539 83.767 L 222.186 84.372 L 222.817 84.987 L 223.434 85.612 L 224.034 86.247 L 224.619 86.892 L 225.188 87.546 L 225.741 88.208 L 226.278 88.879 L 226.799 89.558 L 227.303 90.245 L 227.792 90.938 L 228.263 91.639 L 228.718 92.346 L 229.157 93.060 L 229.579 93.779 L 229.985 94.504 L 230.373 95.233 L 230.745 95.968 L 231.100 96.707 L 231.439 97.449 L 231.760 98.196 L 232.065 98.945 L 232.353 99.698 L 232.625 100.453 L 232.880 101.210 L 233.118 101.969 L 233.339 102.730 L 233.544 103.492 L 233.732 104.254 L 233.904 105.017 L 234.059 105.780 L 234.198 106.543 L 234.320 107.305 L 234.427 108.066 L 234.517 108.826 L 234.591 109.585 L 234.650 110.341 L 234.692 111.096 L 234.719 111.848 L 234.731 112.597 L 234.727 113.343 L 234.707 114.085 L 234.673 114.824 L 234.623 115.559 L 234.559 116.289 L 234.480 117.015 L 234.386 117.736 L 234.278 118.452 L 234.156 119.162 L 234.020 119.867 L 233.870 120.566 L 233.706 121.258 L 233.529 121.944 L 233.338 122.623 L 233.135 123.296 L 232.918 123.961 L 232.689 124.619 L 232.447 125.269 L 232.193 125.911 L 231.928 126.545 L 231.650 127.171 L 231.360 127.788 L 231.060 128.396 L 230.748 128.996 L 230.425 129.586 L 230.092 130.168 L 229.748 130.740 L 229.394 131.302 L 229.030 131.854 L 228.656 132.397 L 228.273 132.929 L 227.881 133.451 L 227.479 133.963 L 227.069 134.464 L 226.651 134.954 L 226.224 135.434 L 225.790 135.903 L 225.348 136.360 L 224.898 136.807 L 224.441 137.242 L 223.978 137.666 L 223.507 138.079 L 223.031 138.480 L 222.548 138.870 L 222.059 139.248 L 221.565 139.614 L 221.066 139.968 L 220.562 140.311 L 220.052 140.641 L 219.539 140.960 L 219.021 141.267 L 218.499 141.561 L 217.973 141.844 L 217.444 142.115 L 216.912 142.373 L 216.377 142.620 L 215.839 142.854 L 215.299 143.076 L 214.757 143.287 L 214.213 143.485 L 213.667 143.671 L 213.120 143.845 L 212.572 144.007 L 212.022 144.157 L 211.473 144.295 L 210.923 144.422 L 210.372 144.536 L 209.822 144.639 L 209.273 144.729 L 208.724 144.809 L 208.175 144.876 L 207.628 144.932 L 207.082 144.977 L 206.538 145.010 L 205.995 145.031 L 205.455 145.042 L 204.916 145.041 L 204.380 145.030 L 203.847 145.007 L 203.317 144.974 L 202.789 144.930 L 202.265 144.875 L 201.745 144.810 L 201.228 144.734 L 200.715 144.648 L 200.206 144.552 L 199.701 144.446 L 199.201 144.330 L 198.705 144.204 L 198.214 144.069 L 197.728 143.924 L 197.248 143.770 L 196.772 143.607 L 196.302 143.435 L 195.838 143.254 L 195.379 143.064 L 194.927 142.865 L 194.481 142.659 L 194.040 142.444 L 193.607 142.220 L 193.179 141.989 L 192.759 141.751 L 192.345 141.505 L 191.938 141.251 L 191.538 140.990 L 191.145 140.722 L 190.760 140.447 L 190.382 140.166 L 190.011 139.878 L 189.648 139.584 L 189.293 139.284 L 188.945 138.977 L 188.605 138.665 L 188.273 138.348 L 187.949 138.025 L 187.633 137.697 L 187.326 137.363 L 187.026 137.026 L 186.735 136.683 L 186.452 136.336 L 186.178 135.985 L 185.912 135.629 L 185.654 135.270 L 185.405 134.907 L 185.165 134.541 L 184.933 134.171 L 184.710 133.798 L 184.495 133.423 L 184.289 133.044 L 184.092 132.663 L 183.903 132.280 L 183.723 131.895 L 183.552 131.508 L 183.390 131.118 L 183.236 130.728 L 183.091 130.336 L 182.955 129.942 L 182.827 129.548 L 182.708 129.153 L 182.597 128.757 L 182.496 128.360 L 182.402 127.964 L 182.318 127.567 L 182.242 127.170 L 182.174 126.774 L 182.115 126.377 L 182.064 125.982 L 182.022 125.587 L 181.987 125.193 L 181.961 124.800 L 181.944 124.408 L 181.934 124.018 L 181.932 123.629 L 181.939 123.242 L 181.953 122.857 L 181.975 122.474 L 182.005 122.093 L 182.042 121.714 L 182.087 121.338 L 182.140 120.964 L 182.200 120.593 L 182.267 120.225 L 182.342 119.860 L 182.424 119.499 L 182.513 119.140 L 182.608 118.785 L 182.711 118.433 L 182.820 118.085 L 182.936 117.741 L 183.059 117.401 L 183.188 117.065 L 183.323 116.733 L 183.465 116.405 L 183.612 116.082 L 183.766 115.763 L 183.925 115.449 L 184.090 115.139 L 184.261 114.834 L 184.437 114.534 L 184.619 114.239 L 184.806 113.949 L 184.998 113.664 L 185.194 113.384 L 185.396 113.110 L 185.603 112.841 L 185.814 112.577 L 186.029 112.319 L 186.249 112.066 L 186.473 111.819 L 186.702 111.578 L 186.934 111.342 L 187.170 111.113 L 187.409 110.889 L 187.652 110.671 L 187.899 110.459 L 188.148 110.253 L 188.401 110.053 L 188.657 109.859 L 188.915 109.671 L 189.177 109.489 L 189.441 109.314 L 189.707 109.145 L 189.976 108.982 L 190.246 108.825 L 190.519 108.674 L 190.794 108.530 L 191.070 108.391 L 191.348 108.260 L 191.627 108.134 L 191.908 108.015 L 192.190 107.902 L 192.473 107.795 L 192.757 107.695 L 193.042 107.600 L 193.327 107.512 L 193.613 107.431 L 193.900 107.355 L 194.187 107.286 L 194.473 107.223 L 194.760 107.166 L 195.047 107.115 L 195.333 107.070 L 195.620 107.032 L 195.905 106.999 L 196.190 106.972 L 196.475 106.952 L 196.758 106.937 L 197.041 106.928 L 197.322 106.925 L 197.603 106.928 L 197.882 106.936 L 198.160 106.950 L 198.436 106.970 L 198.710 106.995 L 198.983 107.026 L 199.254 107.063 L 199.523 107.104 L 199.790 107.151 L 200.055 107.203 L 200.317 107.261 L 200.578 107.324 L 200.836 107.391 L 201.091 107.464 L 201.344 107.541 L 201.594 107.624 L 201.841 107.711 L 202.085 107.803 L 202.327 107.899 L 202.565 108.000 L 202.800 108.105 L 203.033 108.215 L 203.261 108.329 L 203.487 108.447 L 203.709 108.570 L 203.927 108.696 L 204.143 108.826 L 204.354 108.960 L 204.562 109.098 L 204.766 109.239 L 204.966 109.384 L 205.162 109.533 L 205.355 109.685 L 205.544 109.840 L 205.728 109.998 L 205.909 110.159 L 206.085 110.324 L 206.257 110.491 L 206.426 110.661 L 206.589 110.834 L 206.749 111.009 L 206.904 111.187 L 207.055 111.368 L 207.202 111.550 L 207.345 111.735 L 207.482 111.922 L 207.616 112.111 L 207.745 112.302 L 207.870 112.494 L 207.990 112.689 L 208.105 112.885 L 208.216 113.082 L 208.323 113.281 L 208.425 113.481 L 208.522 113.683 L 208.615 113.885 L 208.704 114.089 L 208.788 114.293 L 208.867 114.499 L 208.942 114.705 L 209.012 114.912 L 209.078 115.119 L 209.139 115.327 L 209.195 115.535 L 209.247 115.743 L 209.295 115.952 L 209.338 116.160 L 209.377 116.369 L 209.411 116.577 L 209.441 116.786 L 209.467 116.994 L 209.488 117.201 L 209.505 117.408 L 209.517 117.615 L 209.525 117.821 L 209.529 118.026 L 209.529 118.231 L 209.524 118.434 L 209.516 118.637 L 209.503 118.838 L 209.486 119.039 L 209.465 119.238 L 209.441 119.436 L 209.412 119.633 L 209.379 119.828 L 209.343 120.022 L 209.302 120.214 L 209.258 120.404 L 209.210 120.593 L 209.159 120.780 L 209.104 120.965 L 209.045 121.148 L 208.983 121.330 L 208.918 121.509 L 208.849 121.686 L 208.777 121.861 L 208.701 122.034 L 208.622 122.204 L 208.540 122.372 L 208.455 122.538 L 208.367 122.701 L 208.276 122.862 L 208.182 123.020 L 208.086 123.176 L 207.986 123.329 L 207.884 123.479 L 207.779 123.627 L 207.672 123.772 L 207.562 123.914 L 207.449 124.053 L 207.335 124.189 L 207.217 124.323 L 207.098 124.453 L 206.977 124.581 L 206.853 124.705 L 206.727 124.827 L 206.600 124.945 L 206.470 125.060 L 206.339 125.172 L 206.206 125.281 L 206.071 125.387 L 205.935 125.490 L 205.797 125.589 L 205.658 125.685 L 205.517 125.778 L 205.375 125.868 L 205.232 125.954 L 205.088 126.037 L 204.942 126.117 L 204.796 126.193 L 204.648 126.266 L 204.500 126.336 L 204.351 126.403 L 204.201 126.466 L 204.050 126.526 L 203.899 126.582 L 203.747 126.636 L 203.595 126.685 L 203.442 126.732 L 203.290 126.775 L 203.136 126.815 L 202.983 126.852 L 202.830 126.885 L 202.676 126.915 L 202.522 126.942 L 202.369 126.966 L 202.216 126.986 L 202.063 127.003 L 201.910 127.017 L 201.757 127.028 L 201.605 127.036 L 201.454 127.040 L 201.303 127.041 L 201.152 127.040 L 201.002 127.035 L 200.853 127.027 L 200.705 127.016 L 200.557 127.002 L 200.410 126.985 L 200.265 126.966 L 200.120 126.943 L 199.976 126.917 L 199.833 126.889 L 199.692 126.858 L 199.552 126.824 L 199.413 126.787 L 199.275 126.748 L 199.139 126.706 L 199.004 126.661 L 198.870 126.614 L 198.738 126.564 L 198.608 126.512 L 198.479 126.458 L 198.352 126.400 L 198.226 126.341 L 198.102 126.279 L 197.980 126.215 L 197.860 126.149 L 197.741 126.080 L 197.625 126.009 L 197.510 125.937 L 197.397 125.862 L 197.286 125.785 L 197.178 125.706 L 197.071 125.625 L 196.966 125.543 L 196.864 125.458 L 196.763 125.372 L 196.665 125.284 L 196.569 125.195 L 196.475 125.104 L 196.383 125.011 L 196.294 124.917 L 196.206 124.821 L 196.122 124.724 L 196.039 124.625 L 195.959 124.525 L 195.881 124.424 L 195.805 124.322 L 195.732 124.219 L 195.661 124.114 L 195.593 124.009 L 195.527 123.902 L 195.464 123.795 L 195.403 123.686 L 195.344 123.577 L 195.288 123.467 L 195.234 123.357 L 195.183 123.245 L 195.134 123.133 L 195.088 123.021 L 195.044 122.908 L 195.003 122.794 L 194.964 122.680 L 194.927 122.566 L 194.893 122.451 L 194.862 122.336 L 194.833 122.221 L 194.807 122.106 L 194.782 121.990 L 194.761 121.875 L 194.742 121.759 L 194.725 121.644 L 194.710 121.529 L 194.699 121.414 L 194.689 121.299 L 194.682 121.184 L 194.677 121.069 L 194.675 120.955 L 194.675 120.841 L 194.677 120.728 L 194.681 120.615 L 194.688 120.503 L 194.697 120.391 L 194.709 120.279 L 194.722 120.169 L 194.739 120.056 Z"/><circle class="kf-accent" fill="#D95F3B" cx="230.902" cy="215.106" r="4.125"/>
  <text class="kf-type" fill="#2A2250" x="200.0" y="279.2" text-anchor="middle" font-family='"Bricolage Grotesque", "Inter", "Helvetica Neue", Arial, sans-serif' font-size="56" font-weight="700" letter-spacing="0.01em">KINDNESS</text>
  <text class="kf-type" fill="#2A2250" x="200.0" y="332.4" text-anchor="middle" font-family='"Bricolage Grotesque", "Inter", "Helvetica Neue", Arial, sans-serif' font-size="56" font-weight="400" letter-spacing="0.01em">FLYWHEEL</text>
</svg>
