<svg xmlns="http://www.w3.org/2000/svg" viewBox="0 0 240 240" width="240" height="240" role="img" aria-label="The Kindness Flywheel">
  <path class="kf-mark" fill="#2A2250" d="M 114.149 119.944 L 114.122 120.062 L 114.096 120.183 L 114.073 120.306 L 114.053 120.429 L 114.035 120.554 L 114.019 120.679 L 114.007 120.806 L 113.996 120.933 L 113.988 121.061 L 113.983 121.190 L 113.981 121.320 L 113.981 121.450 L 113.984 121.580 L 113.990 121.712 L 113.998 121.843 L 114.010 121.975 L 114.024 122.108 L 114.041 122.241 L 114.061 122.374 L 114.083 122.507 L 114.109 122.640 L 114.137 122.773 L 114.169 122.906 L 114.203 123.040 L 114.240 123.173 L 114.280 123.306 L 114.324 123.438 L 114.370 123.571 L 114.419 123.703 L 114.471 123.834 L 114.526 123.965 L 114.584 124.095 L 114.645 124.225 L 114.709 124.354 L 114.775 124.483 L 114.845 124.610 L 114.918 124.736 L 114.994 124.862 L 115.073 124.987 L 115.154 125.110 L 115.239 125.232 L 115.327 125.353 L 115.417 125.473 L 115.510 125.591 L 115.607 125.708 L 115.706 125.823 L 115.808 125.937 L 115.912 126.049 L 116.020 126.160 L 116.130 126.268 L 116.243 126.375 L 116.359 126.480 L 116.477 126.583 L 116.598 126.684 L 116.722 126.783 L 116.848 126.880 L 116.977 126.974 L 117.108 127.066 L 117.242 127.156 L 117.378 127.243 L 117.517 127.328 L 117.658 127.411 L 117.801 127.490 L 117.947 127.568 L 118.095 127.642 L 118.245 127.714 L 118.397 127.782 L 118.551 127.848 L 118.707 127.911 L 118.866 127.971 L 119.026 128.028 L 119.188 128.082 L 119.351 128.133 L 119.517 128.180 L 119.684 128.225 L 119.853 128.265 L 120.023 128.303 L 120.195 128.337 L 120.368 128.368 L 120.543 128.395 L 120.719 128.419 L 120.896 128.439 L 121.075 128.456 L 121.254 128.469 L 121.434 128.478 L 121.616 128.483 L 121.798 128.485 L 121.981 128.483 L 122.165 128.477 L 122.349 128.467 L 122.534 128.454 L 122.720 128.436 L 122.905 128.415 L 123.091 128.389 L 123.278 128.360 L 123.464 128.326 L 123.651 128.289 L 123.838 128.247 L 124.024 128.202 L 124.210 128.152 L 124.396 128.098 L 124.582 128.041 L 124.767 127.979 L 124.952 127.913 L 125.136 127.842 L 125.319 127.768 L 125.502 127.690 L 125.683 127.607 L 125.864 127.521 L 126.044 127.430 L 126.222 127.335 L 126.399 127.236 L 126.575 127.133 L 126.750 127.026 L 126.923 126.915 L 127.094 126.799 L 127.263 126.680 L 127.431 126.557 L 127.597 126.429 L 127.761 126.298 L 127.923 126.163 L 128.082 126.024 L 128.240 125.881 L 128.395 125.734 L 128.548 125.583 L 128.698 125.428 L 128.845 125.270 L 128.990 125.108 L 129.132 124.943 L 129.271 124.773 L 129.407 124.600 L 129.540 124.424 L 129.670 124.244 L 129.797 124.061 L 129.920 123.874 L 130.040 123.684 L 130.157 123.491 L 130.270 123.295 L 130.379 123.095 L 130.485 122.893 L 130.587 122.687 L 130.685 122.478 L 130.779 122.267 L 130.869 122.053 L 130.955 121.836 L 131.037 121.616 L 131.114 121.394 L 131.187 121.169 L 131.256 120.942 L 131.320 120.712 L 131.380 120.481 L 131.435 120.247 L 131.486 120.011 L 131.532 119.773 L 131.573 119.533 L 131.609 119.291 L 131.640 119.048 L 131.667 118.803 L 131.688 118.556 L 131.705 118.309 L 131.716 118.059 L 131.722 117.809 L 131.723 117.557 L 131.719 117.305 L 131.709 117.051 L 131.694 116.797 L 131.674 116.542 L 131.648 116.286 L 131.617 116.030 L 131.581 115.774 L 131.539 115.517 L 131.492 115.260 L 131.439 115.003 L 131.380 114.747 L 131.316 114.490 L 131.246 114.234 L 131.171 113.978 L 131.090 113.723 L 131.003 113.468 L 130.911 113.215 L 130.813 112.962 L 130.710 112.710 L 130.601 112.459 L 130.486 112.210 L 130.366 111.962 L 130.240 111.716 L 130.108 111.471 L 129.971 111.228 L 129.828 110.987 L 129.680 110.748 L 129.526 110.511 L 129.366 110.277 L 129.201 110.045 L 129.031 109.815 L 128.855 109.588 L 128.674 109.364 L 128.487 109.143 L 128.295 108.924 L 128.098 108.709 L 127.895 108.497 L 127.687 108.289 L 127.474 108.084 L 127.256 107.882 L 127.033 107.685 L 126.805 107.491 L 126.573 107.301 L 126.335 107.116 L 126.092 106.934 L 125.845 106.757 L 125.593 106.584 L 125.337 106.416 L 125.076 106.253 L 124.810 106.094 L 124.541 105.941 L 124.267 105.792 L 123.989 105.648 L 123.707 105.510 L 123.420 105.377 L 123.130 105.250 L 122.837 105.128 L 122.539 105.011 L 122.238 104.900 L 121.934 104.796 L 121.626 104.697 L 121.315 104.604 L 121.001 104.517 L 120.684 104.436 L 120.363 104.362 L 120.040 104.294 L 119.715 104.233 L 119.387 104.178 L 119.056 104.129 L 118.724 104.088 L 118.389 104.053 L 118.052 104.025 L 117.713 104.003 L 117.372 103.989 L 117.030 103.982 L 116.686 103.982 L 116.341 103.989 L 115.995 104.003 L 115.648 104.025 L 115.300 104.053 L 114.951 104.090 L 114.602 104.133 L 114.252 104.184 L 113.902 104.242 L 113.551 104.308 L 113.201 104.382 L 112.851 104.463 L 112.501 104.551 L 112.152 104.648 L 111.804 104.751 L 111.456 104.863 L 111.109 104.982 L 110.763 105.109 L 110.419 105.243 L 110.076 105.385 L 109.735 105.535 L 109.396 105.693 L 109.058 105.858 L 108.723 106.030 L 108.390 106.211 L 108.059 106.399 L 107.731 106.594 L 107.406 106.798 L 107.084 107.008 L 106.765 107.226 L 106.450 107.452 L 106.137 107.685 L 105.829 107.926 L 105.524 108.173 L 105.224 108.428 L 104.927 108.691 L 104.635 108.960 L 104.347 109.237 L 104.064 109.520 L 103.786 109.811 L 103.512 110.108 L 103.244 110.412 L 102.981 110.723 L 102.724 111.041 L 102.472 111.365 L 102.226 111.696 L 101.986 112.033 L 101.752 112.376 L 101.524 112.726 L 101.302 113.081 L 101.087 113.443 L 100.879 113.810 L 100.678 114.183 L 100.484 114.562 L 100.296 114.946 L 100.116 115.336 L 99.944 115.730 L 99.779 116.130 L 99.621 116.535 L 99.472 116.944 L 99.330 117.359 L 99.197 117.778 L 99.071 118.201 L 98.954 118.628 L 98.846 119.059 L 98.746 119.495 L 98.654 119.934 L 98.572 120.376 L 98.498 120.822 L 98.433 121.272 L 98.378 121.724 L 98.331 122.179 L 98.294 122.637 L 98.266 123.097 L 98.248 123.560 L 98.239 124.025 L 98.239 124.492 L 98.250 124.960 L 98.270 125.431 L 98.300 125.902 L 98.340 126.375 L 98.390 126.848 L 98.450 127.323 L 98.520 127.798 L 98.600 128.273 L 98.691 128.748 L 98.791 129.224 L 98.902 129.699 L 99.023 130.174 L 99.155 130.647 L 99.297 131.120 L 99.449 131.592 L 99.611 132.063 L 99.784 132.531 L 99.967 132.998 L 100.161 133.463 L 100.365 133.926 L 100.580 134.386 L 100.804 134.844 L 101.040 135.299 L 101.285 135.750 L 101.541 136.198 L 101.807 136.643 L 102.083 137.083 L 102.370 137.520 L 102.667 137.952 L 102.973 138.380 L 103.290 138.803 L 103.617 139.221 L 103.954 139.634 L 104.300 140.041 L 104.657 140.443 L 105.023 140.839 L 105.398 141.228 L 105.783 141.612 L 106.178 141.989 L 106.582 142.359 L 106.995 142.722 L 107.417 143.078 L 107.849 143.427 L 108.289 143.767 L 108.737 144.100 L 109.195 144.425 L 109.661 144.742 L 110.135 145.050 L 110.618 145.350 L 111.108 145.641 L 111.606 145.922 L 112.113 146.195 L 112.626 146.458 L 113.147 146.711 L 113.676 146.954 L 114.211 147.187 L 114.753 147.410 L 115.302 147.623 L 115.858 147.825 L 116.419 148.016 L 116.987 148.197 L 117.561 148.366 L 118.140 148.524 L 118.725 148.671 L 119.315 148.805 L 119.911 148.929 L 120.510 149.040 L 121.115 149.139 L 121.724 149.226 L 122.337 149.301 L 122.954 149.364 L 123.574 149.413 L 124.198 149.451 L 124.825 149.475 L 125.455 149.486 L 126.088 149.485 L 126.723 149.470 L 127.360 149.442 L 127.998 149.400 L 128.639 149.346 L 129.280 149.277 L 129.923 149.196 L 130.566 149.100 L 131.210 148.991 L 131.854 148.868 L 132.498 148.731 L 133.142 148.580 L 133.785 148.416 L 134.426 148.237 L 135.067 148.045 L 135.706 147.838 L 136.343 147.617 L 136.978 147.383 L 137.610 147.134 L 138.240 146.871 L 138.867 146.594 L 139.490 146.303 L 140.109 145.998 L 140.725 145.679 L 141.336 145.346 L 141.943 144.999 L 142.545 144.638 L 143.141 144.264 L 143.732 143.875 L 144.317 143.473 L 144.896 143.057 L 145.469 142.628 L 146.035 142.185 L 146.594 141.728 L 147.145 141.259 L 147.689 140.776 L 148.225 140.280 L 148.752 139.770 L 149.271 139.249 L 149.781 138.714 L 150.282 138.167 L 150.774 137.607 L 151.256 137.035 L 151.727 136.451 L 152.189 135.854 L 152.639 135.246 L 153.079 134.627 L 153.508 133.996 L 153.925 133.353 L 154.330 132.700 L 154.724 132.035 L 155.105 131.360 L 155.473 130.675 L 155.829 129.979 L 156.171 129.273 L 156.501 128.557 L 156.816 127.832 L 157.118 127.098 L 157.406 126.354 L 157.679 125.602 L 157.938 124.841 L 158.182 124.072 L 158.410 123.296 L 158.624 122.511 L 158.822 121.719 L 159.005 120.920 L 159.171 120.114 L 159.322 119.301 L 159.456 118.483 L 159.574 117.658 L 159.675 116.828 L 159.759 115.993 L 159.826 115.152 L 159.876 114.308 L 159.909 113.459 L 159.924 112.606 L 159.922 111.749 L 159.901 110.889 L 159.863 110.027 L 159.807 109.162 L 159.733 108.295 L 159.640 107.426 L 159.529 106.556 L 159.400 105.685 L 159.252 104.813 L 159.085 103.941 L 158.900 103.069 L 158.695 102.198 L 158.472 101.328 L 158.230 100.458 L 157.970 99.591 L 157.690 98.726 L 157.391 97.863 L 157.073 97.004 L 156.736 96.147 L 156.380 95.295 L 156.005 94.446 L 155.611 93.602 L 155.198 92.764 L 154.766 91.930 L 154.315 91.102 L 153.845 90.281 L 153.356 89.466 L 152.849 88.658 L 152.323 87.858 L 151.778 87.066 L 151.215 86.282 L 150.634 85.506 L 150.034 84.740 L 149.416 83.983 L 148.780 83.236 L 148.126 82.500 L 147.454 81.774 L 146.765 81.060 L 146.058 80.357 L 145.334 79.666 L 144.593 78.988 L 143.835 78.322 L 143.060 77.670 L 142.269 77.031 L 141.462 76.406 L 140.639 75.796 L 139.799 75.200 L 138.945 74.619 L 138.075 74.055 L 137.190 73.505 L 136.290 72.973 L 135.376 72.456 L 134.447 71.957 L 133.505 71.475 L 132.549 71.011 L 131.580 70.565 L 130.598 70.138 L 129.604 69.729 L 128.597 69.339 L 127.578 68.969 L 126.548 68.618 L 125.507 68.288 L 124.455 67.978 L 123.392 67.688 L 122.319 67.419 L 121.237 67.172 L 120.145 66.946 L 119.045 66.742 L 117.936 66.560 L 116.819 66.400 L 115.695 66.263 L 114.564 66.149 L 113.426 66.057 L 112.281 65.989 L 111.131 65.945 L 109.976 65.924 L 108.816 65.927 L 107.651 65.954 L 106.483 66.005 L 105.311 66.081 L 104.137 66.181 L 102.960 66.306 L 101.781 66.456 L 100.601 66.631 L 99.420 66.831 L 98.239 67.057 L 97.057 67.307 L 95.877 67.584 L 94.698 67.885 L 93.520 68.213 L 92.345 68.566 L 91.173 68.944 L 90.004 69.349 L 88.840 69.779 L 87.679 70.235 L 86.524 70.717 L 85.374 71.225 L 84.231 71.758 L 83.094 72.317 L 81.964 72.902 L 80.843 73.512 L 79.729 74.148 L 78.625 74.810 L 77.530 75.497 L 76.446 76.209 L 75.372 76.947 L 74.309 77.709 L 73.258 78.497 L 72.219 79.309 L 71.193 80.146 L 70.181 81.008 L 69.183 81.893 L 68.199 82.803 L 67.231 83.737 L 66.278 84.694 L 65.341 85.674 L 64.421 86.678 L 63.519 87.705 L 62.634 88.754 L 61.768 89.826 L 60.920 90.919 L 60.092 92.035 L 59.285 93.172 L 58.497 94.329 L 57.731 95.508 L 56.986 96.707 L 56.263 97.926 L 55.563 99.165 L 54.886 100.422 L 54.232 101.699 L 53.602 102.994 L 52.997 104.307 L 52.417 105.638 L 51.862 106.986 L 51.333 108.350 L 50.830 109.730 L 50.354 111.127 L 49.905 112.538 L 49.483 113.964 L 49.090 115.404 L 48.725 116.858 L 48.389 118.325 L 48.081 119.804 L 47.804 121.296 L 47.556 122.799 L 47.339 124.313 L 47.152 125.837 L 46.996 127.370 L 46.871 128.913 L 46.777 130.465 L 46.716 132.024 L 46.687 133.590 L 46.689 135.163 L 46.725 136.742 L 46.794 138.326 L 46.895 139.914 L 47.030 141.507 L 47.199 143.103 L 47.401 144.701 L 47.637 146.302 L 47.907 147.903 L 48.212 149.505 L 48.550 151.107 L 48.924 152.708 L 49.332 154.307 L 49.774 155.904 L 50.252 157.498 L 50.764 159.088 L 51.312 160.673 L 51.894 162.253 L 52.511 163.827 L 53.163 165.395 L 53.850 166.954 L 54.573 168.506 L 55.330 170.048 L 56.122 171.581 L 56.949 173.102 L 57.810 174.613 L 58.706 176.111 L 59.637 177.597 L 60.602 179.069 L 61.601 180.526 L 62.634 181.969 L 63.701 183.395 L 64.802 184.805 L 65.936 186.197 L 67.103 187.571 L 68.303 188.927 L 69.536 190.262 L 70.802 191.577 L 72.099 192.871 L 73.428 194.142 L 74.789 195.391 L 76.181 196.617 L 77.603 197.818 L 79.056 198.995 L 80.538 200.146 L 82.051 201.270 L 83.592 202.367 L 85.162 203.437 L 86.760 204.478 L 88.386 205.490 L 90.039 206.472 L 91.719 207.424 L 93.425 208.344 L 95.156 209.233 L 96.913 210.089 L 98.693 210.912 L 100.498 211.701 L 102.326 212.455 L 104.177 213.175 L 106.050 213.859 L 107.944 214.507 L 109.858 215.118 L 111.793 215.692 L 113.747 216.227 L 115.719 216.725 L 117.710 217.183 L 119.717 217.601 L 121.741 217.980 L 123.780 218.318 L 125.835 218.615 L 127.903 218.871 L 129.984 219.085 L 132.078 219.256 L 134.183 219.385 L 136.299 219.471 L 138.425 219.512 L 140.560 219.511 L 142.703 219.464 L 144.854 219.373 L 147.010 219.238 L 149.172 219.057 L 151.300 218.834 L 150.503 211.377 L 148.453 211.601 L 146.446 211.779 L 144.444 211.914 L 142.448 212.008 L 140.459 212.061 L 138.478 212.072 L 136.505 212.042 L 134.542 211.973 L 132.589 211.863 L 130.647 211.713 L 128.716 211.524 L 126.798 211.297 L 124.894 211.031 L 123.003 210.727 L 121.126 210.386 L 119.266 210.007 L 117.421 209.592 L 115.593 209.141 L 113.782 208.655 L 111.989 208.133 L 110.215 207.577 L 108.461 206.987 L 106.726 206.363 L 105.012 205.707 L 103.318 205.018 L 101.647 204.298 L 99.998 203.546 L 98.371 202.764 L 96.768 201.952 L 95.189 201.110 L 93.634 200.240 L 92.104 199.342 L 90.599 198.417 L 89.119 197.464 L 87.666 196.486 L 86.240 195.481 L 84.840 194.453 L 83.468 193.400 L 82.123 192.323 L 80.807 191.224 L 79.519 190.102 L 78.260 188.959 L 77.030 187.795 L 75.829 186.611 L 74.658 185.408 L 73.517 184.186 L 72.406 182.946 L 71.325 181.689 L 70.276 180.415 L 69.256 179.125 L 68.268 177.820 L 67.312 176.500 L 66.386 175.167 L 65.492 173.821 L 64.630 172.462 L 63.800 171.092 L 63.001 169.710 L 62.234 168.319 L 61.499 166.918 L 60.797 165.508 L 60.126 164.089 L 59.488 162.664 L 58.881 161.231 L 58.307 159.793 L 57.765 158.349 L 57.255 156.901 L 56.777 155.448 L 56.331 153.992 L 55.917 152.534 L 55.535 151.073 L 55.184 149.611 L 54.865 148.149 L 54.577 146.686 L 54.321 145.224 L 54.096 143.763 L 53.902 142.304 L 53.739 140.848 L 53.606 139.395 L 53.504 137.945 L 53.432 136.500 L 53.390 135.060 L 53.378 133.625 L 53.396 132.197 L 53.442 130.775 L 53.518 129.361 L 53.622 127.954 L 53.755 126.556 L 53.916 125.167 L 54.105 123.787 L 54.321 122.418 L 54.564 121.059 L 54.835 119.711 L 55.131 118.374 L 55.454 117.050 L 55.803 115.738 L 56.177 114.439 L 56.576 113.154 L 56.999 111.882 L 57.447 110.625 L 57.919 109.383 L 58.414 108.156 L 58.932 106.945 L 59.473 105.749 L 60.035 104.571 L 60.620 103.409 L 61.226 102.264 L 61.852 101.136 L 62.499 100.027 L 63.166 98.936 L 63.852 97.863 L 64.557 96.810 L 65.281 95.775 L 66.023 94.760 L 66.782 93.765 L 67.558 92.790 L 68.351 91.835 L 69.160 90.900 L 69.984 89.987 L 70.824 89.094 L 71.678 88.223 L 72.546 87.373 L 73.428 86.545 L 74.323 85.738 L 75.230 84.954 L 76.150 84.192 L 77.081 83.452 L 78.023 82.734 L 78.975 82.039 L 79.938 81.367 L 80.910 80.717 L 81.891 80.090 L 82.881 79.487 L 83.878 78.906 L 84.883 78.348 L 85.895 77.814 L 86.914 77.302 L 87.938 76.814 L 88.968 76.349 L 90.003 75.908 L 91.042 75.489 L 92.085 75.094 L 93.132 74.722 L 94.181 74.373 L 95.233 74.047 L 96.287 73.744 L 97.343 73.465 L 98.399 73.208 L 99.456 72.974 L 100.513 72.763 L 101.570 72.574 L 102.626 72.408 L 103.681 72.265 L 104.733 72.143 L 105.784 72.044 L 106.832 71.967 L 107.877 71.912 L 108.918 71.878 L 109.955 71.866 L 110.988 71.876 L 112.016 71.906 L 113.039 71.958 L 114.056 72.030 L 115.067 72.123 L 116.072 72.236 L 117.070 72.369 L 118.061 72.522 L 119.044 72.695 L 120.019 72.888 L 120.986 73.099 L 121.944 73.329 L 122.893 73.578 L 123.833 73.846 L 124.763 74.131 L 125.683 74.434 L 126.593 74.755 L 127.492 75.093 L 128.380 75.448 L 129.257 75.820 L 130.122 76.208 L 130.975 76.612 L 131.817 77.032 L 132.645 77.467 L 133.462 77.917 L 134.265 78.382 L 135.055 78.861 L 135.832 79.355 L 136.595 79.862 L 137.345 80.382 L 138.080 80.916 L 138.801 81.462 L 139.507 82.021 L 140.199 82.591 L 140.877 83.174 L 141.539 83.767 L 142.186 84.372 L 142.817 84.987 L 143.434 85.612 L 144.034 86.247 L 144.619 86.892 L 145.188 87.546 L 145.741 88.208 L 146.278 88.879 L 146.799 89.558 L 147.303 90.245 L 147.792 90.938 L 148.263 91.639 L 148.718 92.346 L 149.157 93.060 L 149.579 93.779 L 149.985 94.504 L 150.373 95.233 L 150.745 95.968 L 151.100 96.707 L 151.439 97.449 L 151.760 98.196 L 152.065 98.945 L 152.353 99.698 L 152.625 100.453 L 152.880 101.210 L 153.118 101.969 L 153.339 102.730 L 153.544 103.492 L 153.732 104.254 L 153.904 105.017 L 154.059 105.780 L 154.198 106.543 L 154.320 107.305 L 154.427 108.066 L 154.517 108.826 L 154.591 109.585 L 154.650 110.341 L 154.692 111.096 L 154.719 111.848 L 154.731 112.597 L 154.727 113.343 L 154.707 114.085 L 154.673 114.824 L 154.623 115.559 L 154.559 116.289 L 154.480 117.015 L 154.386 117.736 L 154.278 118.452 L 154.156 119.162 L 154.020 119.867 L 153.870 120.566 L 153.706 121.258 L 153.529 121.944 L 153.338 122.623 L 153.135 123.296 L 152.918 123.961 L 152.689 124.619 L 152.447 125.269 L 152.193 125.911 L 151.928 126.545 L 151.650 127.171 L 151.360 127.788 L 151.060 128.396 L 150.748 128.996 L 150.425 129.586 L 150.092 130.168 L 149.748 130.740 L 149.394 131.302 L 149.030 131.854 L 148.656 132.397 L 148.273 132.929 L 147.881 133.451 L 147.479 133.963 L 147.069 134.464 L 146.651 134.954 L 146.224 135.434 L 145.790 135.903 L 145.348 136.360 L 144.898 136.807 L 144.441 137.242 L 143.978 137.666 L 143.507 138.079 L 143.031 138.480 L 142.548 138.870 L 142.059 139.248 L 141.565 139.614 L 141.066 139.968 L 140.562 140.311 L 140.052 140.641 L 139.539 140.960 L 139.021 141.267 L 138.499 141.561 L 137.973 141.844 L 137.444 142.115 L 136.912 142.373 L 136.377 142.620 L 135.839 142.854 L 135.299 143.076 L 134.757 143.287 L 134.213 143.485 L 133.667 143.671 L 133.120 143.845 L 132.572 144.007 L 132.022 144.157 L 131.473 144.295 L 130.923 144.422 L 130.372 144.536 L 129.822 144.639 L 129.273 144.729 L 128.724 144.809 L 128.175 144.876 L 127.628 144.932 L 127.082 144.977 L 126.538 145.010 L 125.995 145.031 L 125.455 145.042 L 124.916 145.041 L 124.380 145.030 L 123.847 145.007 L 123.317 144.974 L 122.789 144.930 L 122.265 144.875 L 121.745 144.810 L 121.228 144.734 L 120.715 144.648 L 120.206 144.552 L 119.701 144.446 L 119.201 144.330 L 118.705 144.204 L 118.214 144.069 L 117.728 143.924 L 117.248 143.770 L 116.772 143.607 L 116.302 143.435 L 115.838 143.254 L 115.379 143.064 L 114.927 142.865 L 114.481 142.659 L 114.040 142.444 L 113.607 142.220 L 113.179 141.989 L 112.759 141.751 L 112.345 141.505 L 111.938 141.251 L 111.538 140.990 L 111.145 140.722 L 110.760 140.447 L 110.382 140.166 L 110.011 139.878 L 109.648 139.584 L 109.293 139.284 L 108.945 138.977 L 108.605 138.665 L 108.273 138.348 L 107.949 138.025 L 107.633 137.697 L 107.326 137.363 L 107.026 137.026 L 106.735 136.683 L 106.452 136.336 L 106.178 135.985 L 105.912 135.629 L 105.654 135.270 L 105.405 134.907 L 105.165 134.541 L 104.933 134.171 L 104.710 133.798 L 104.495 133.423 L 104.289 133.044 L 104.092 132.663 L 103.903 132.280 L 103.723 131.895 L 103.552 131.508 L 103.390 131.118 L 103.236 130.728 L 103.091 130.336 L 102.955 129.942 L 102.827 129.548 L 102.708 129.153 L 102.597 128.757 L 102.496 128.360 L 102.402 127.964 L 102.318 127.567 L 102.242 127.170 L 102.174 126.774 L 102.115 126.377 L 102.064 125.982 L 102.022 125.587 L 101.987 125.193 L 101.961 124.800 L 101.944 124.408 L 101.934 124.018 L 101.932 123.629 L 101.939 123.242 L 101.953 122.857 L 101.975 122.474 L 102.005 122.093 L 102.042 121.714 L 102.087 121.338 L 102.140 120.964 L 102.200 120.593 L 102.267 120.225 L 102.342 119.860 L 102.424 119.499 L 102.513 119.140 L 102.608 118.785 L 102.711 118.433 L 102.820 118.085 L 102.936 117.741 L 103.059 117.401 L 103.188 117.065 L 103.323 116.733 L 103.465 116.405 L 103.612 116.082 L 103.766 115.763 L 103.925 115.449 L 104.090 115.139 L 104.261 114.834 L 104.437 114.534 L 104.619 114.239 L 104.806 113.949 L 104.998 113.664 L 105.194 113.384 L 105.396 113.110 L 105.603 112.841 L 105.814 112.577 L 106.029 112.319 L 106.249 112.066 L 106.473 111.819 L 106.702 111.578 L 106.934 111.342 L 107.170 111.113 L 107.409 110.889 L 107.652 110.671 L 107.899 110.459 L 108.148 110.253 L 108.401 110.053 L 108.657 109.859 L 108.915 109.671 L 109.177 109.489 L 109.441 109.314 L 109.707 109.145 L 109.976 108.982 L 110.246 108.825 L 110.519 108.674 L 110.794 108.530 L 111.070 108.391 L 111.348 108.260 L 111.627 108.134 L 111.908 108.015 L 112.190 107.902 L 112.473 107.795 L 112.757 107.695 L 113.042 107.600 L 113.327 107.512 L 113.613 107.431 L 113.900 107.355 L 114.187 107.286 L 114.473 107.223 L 114.760 107.166 L 115.047 107.115 L 115.333 107.070 L 115.620 107.032 L 115.905 106.999 L 116.190 106.972 L 116.475 106.952 L 116.758 106.937 L 117.041 106.928 L 117.322 106.925 L 117.603 106.928 L 117.882 106.936 L 118.160 106.950 L 118.436 106.970 L 118.710 106.995 L 118.983 107.026 L 119.254 107.063 L 119.523 107.104 L 119.790 107.151 L 120.055 107.203 L 120.317 107.261 L 120.578 107.324 L 120.836 107.391 L 121.091 107.464 L 121.344 107.541 L 121.594 107.624 L 121.841 107.711 L 122.085 107.803 L 122.327 107.899 L 122.565 108.000 L 122.800 108.105 L 123.033 108.215 L 123.261 108.329 L 123.487 108.447 L 123.709 108.570 L 123.927 108.696 L 124.143 108.826 L 124.354 108.960 L 124.562 109.098 L 124.766 109.239 L 124.966 109.384 L 125.162 109.533 L 125.355 109.685 L 125.544 109.840 L 125.728 109.998 L 125.909 110.159 L 126.085 110.324 L 126.257 110.491 L 126.426 110.661 L 126.589 110.834 L 126.749 111.009 L 126.904 111.187 L 127.055 111.368 L 127.202 111.550 L 127.345 111.735 L 127.482 111.922 L 127.616 112.111 L 127.745 112.302 L 127.870 112.494 L 127.990 112.689 L 128.105 112.885 L 128.216 113.082 L 128.323 113.281 L 128.425 113.481 L 128.522 113.683 L 128.615 113.885 L 128.704 114.089 L 128.788 114.293 L 128.867 114.499 L 128.942 114.705 L 129.012 114.912 L 129.078 115.119 L 129.139 115.327 L 129.195 115.535 L 129.247 115.743 L 129.295 115.952 L 129.338 116.160 L 129.377 116.369 L 129.411 116.577 L 129.441 116.786 L 129.467 116.994 L 129.488 117.201 L 129.505 117.408 L 129.517 117.615 L 129.525 117.821 L 129.529 118.026 L 129.529 118.231 L 129.524 118.434 L 129.516 118.637 L 129.503 118.838 L 129.486 119.039 L 129.465 119.238 L 129.441 119.436 L 129.412 119.633 L 129.379 119.828 L 129.343 120.022 L 129.302 120.214 L 129.258 120.404 L 129.210 120.593 L 129.159 120.780 L 129.104 120.965 L 129.045 121.148 L 128.983 121.330 L 128.918 121.509 L 128.849 121.686 L 128.777 121.861 L 128.701 122.034 L 128.622 122.204 L 128.540 122.372 L 128.455 122.538 L 128.367 122.701 L 128.276 122.862 L 128.182 123.020 L 128.086 123.176 L 127.986 123.329 L 127.884 123.479 L 127.779 123.627 L 127.672 123.772 L 127.562 123.914 L 127.449 124.053 L 127.335 124.189 L 127.217 124.323 L 127.098 124.453 L 126.977 124.581 L 126.853 124.705 L 126.727 124.827 L 126.600 124.945 L 126.470 125.060 L 126.339 125.172 L 126.206 125.281 L 126.071 125.387 L 125.935 125.490 L 125.797 125.589 L 125.658 125.685 L 125.517 125.778 L 125.375 125.868 L 125.232 125.954 L 125.088 126.037 L 124.942 126.117 L 124.796 126.193 L 124.648 126.266 L 124.500 126.336 L 124.351 126.403 L 124.201 126.466 L 124.050 126.526 L 123.899 126.582 L 123.747 126.636 L 123.595 126.685 L 123.442 126.732 L 123.290 126.775 L 123.136 126.815 L 122.983 126.852 L 122.830 126.885 L 122.676 126.915 L 122.522 126.942 L 122.369 126.966 L 122.216 126.986 L 122.063 127.003 L 121.910 127.017 L 121.757 127.028 L 121.605 127.036 L 121.454 127.040 L 121.303 127.041 L 121.152 127.040 L 121.002 127.035 L 120.853 127.027 L 120.705 127.016 L 120.557 127.002 L 120.410 126.985 L 120.265 126.966 L 120.120 126.943 L 119.976 126.917 L 119.833 126.889 L 119.692 126.858 L 119.552 126.824 L 119.413 126.787 L 119.275 126.748 L 119.139 126.706 L 119.004 126.661 L 118.870 126.614 L 118.738 126.564 L 118.608 126.512 L 118.479 126.458 L 118.352 126.400 L 118.226 126.341 L 118.102 126.279 L 117.980 126.215 L 117.860 126.149 L 117.741 126.080 L 117.625 126.009 L 117.510 125.937 L 117.397 125.862 L 117.286 125.785 L 117.178 125.706 L 117.071 125.625 L 116.966 125.543 L 116.864 125.458 L 116.763 125.372 L 116.665 125.284 L 116.569 125.195 L 116.475 125.104 L 116.383 125.011 L 116.294 124.917 L 116.206 124.821 L 116.122 124.724 L 116.039 124.625 L 115.959 124.525 L 115.881 124.424 L 115.805 124.322 L 115.732 124.219 L 115.661 124.114 L 115.593 124.009 L 115.527 123.902 L 115.464 123.795 L 115.403 123.686 L 115.344 123.577 L 115.288 123.467 L 115.234 123.357 L 115.183 123.245 L 115.134 123.133 L 115.088 123.021 L 115.044 122.908 L 115.003 122.794 L 114.964 122.680 L 114.927 122.566 L 114.893 122.451 L 114.862 122.336 L 114.833 122.221 L 114.807 122.106 L 114.782 121.990 L 114.761 121.875 L 114.742 121.759 L 114.725 121.644 L 114.710 121.529 L 114.699 121.414 L 114.689 121.299 L 114.682 121.184 L 114.677 121.069 L 114.675 120.955 L 114.675 120.841 L 114.677 120.728 L 114.681 120.615 L 114.688 120.503 L 114.697 120.391 L 114.709 120.279 L 114.722 120.169 L 114.739 120.056 Z"/><circle class="kf-accent" fill="#D95F3B" cx="150.902" cy="215.106" r="4.125"/>
</svg>
